<svg width="147" height="157" viewBox="0 0 147 157" fill="none" xmlns="http://www.w3.org/2000/svg">
<path fill-rule="evenodd" clip-rule="evenodd" d="M83.8249 54.2674L81.1937 51.3961L82.0092 50.8098C82.8652 50.1328 84.0766 49.0763 85.6435 47.6404C88.3425 45.1669 91.3137 44.6452 94.5568 46.0753C95.5711 46.52 96.5513 47.1357 97.4975 47.9221C97.9705 48.3153 98.342 48.6621 98.6118 48.9624L102.681 53.4469C111.883 64.5716 118.306 73.6744 121.949 80.7553C125.596 87.8336 128.337 93.5782 130.173 97.989L98.3894 127.277C81.345 115.04 64.2408 109.026 47.0765 109.235C40.0347 97.2103 44.9756 92.4703 61.8993 95.0153L31.973 62.3593C31.7411 62.0886 31.484 61.7524 31.2019 61.3509C30.492 60.3478 29.9466 59.3338 29.5656 58.3087C28.4248 55.242 28.9064 52.6101 31.0108 50.4133C33.3855 48.5055 36.0507 48.2535 39.0065 49.6569C39.9944 50.1259 40.9573 50.7575 41.8946 51.5519C42.2702 51.8681 42.5812 52.1547 42.8277 52.4119L52.8633 63.3629L53.5986 62.6891C54.4545 62.012 55.6659 60.9556 57.2328 59.5196C59.9319 57.0462 62.903 56.5244 66.1462 57.9545C67.1605 58.3993 68.1407 59.0149 69.0868 59.8014C69.4654 60.1148 69.7793 60.3988 70.0287 60.6534L66.6595 56.9768L67.3948 56.303C68.2508 55.626 69.4621 54.5695 71.029 53.1336C73.7281 50.6601 76.6993 50.1384 79.9424 51.5684C80.9568 52.0133 81.9369 52.629 82.883 53.4153C83.2616 53.7287 83.5755 54.0128 83.8249 54.2674Z" fill="black"/>
<path fill-rule="evenodd" clip-rule="evenodd" d="M83.8249 54.2674C83.5755 54.0128 83.2616 53.7287 82.883 53.4153C81.9369 52.6289 80.9567 52.0132 79.9424 51.5684C76.6993 50.1384 73.7281 50.6601 71.029 53.1336C69.4621 54.5695 68.2508 55.626 67.3948 56.303L66.6595 56.9768L70.0287 60.6534L76.0453 67.2188M70.0287 60.6534C69.7793 60.3988 69.4654 60.1148 69.0868 59.8014C68.1407 59.0149 67.1605 58.3993 66.1462 57.9545C62.903 56.5244 59.9319 57.0462 57.2328 59.5196C55.6659 60.9556 54.4545 62.012 53.5986 62.6891L52.8633 63.3629L62.2491 73.6048M52.8633 63.3629L42.8277 52.4119C42.5812 52.1547 42.2701 51.868 41.8946 51.5519C40.9572 50.7575 39.9944 50.1259 39.0065 49.6569C36.0507 48.2535 33.3855 48.5055 31.0108 50.4133C28.9064 52.6101 28.4248 55.242 29.5656 58.3087C29.9466 59.3338 30.4921 60.3479 31.2019 61.3509C31.484 61.7526 31.7411 62.0886 31.973 62.3593L61.8993 95.0153C44.9756 92.4703 40.0347 97.2103 47.0765 109.235C64.2408 109.026 81.345 115.04 98.3894 127.277L130.173 97.989C128.337 93.5782 125.596 87.8336 121.949 80.7553C118.306 73.6744 111.883 64.5716 102.681 53.4469L98.6118 48.9624C98.342 48.6621 97.9705 48.3153 97.4975 47.9221C96.5513 47.1357 95.5711 46.52 94.5568 46.0753C91.3137 44.6452 88.3425 45.1669 85.6435 47.6404C84.0766 49.0763 82.8652 50.1328 82.0092 50.8098L81.1937 51.3961L83.8249 54.2674C83.857 54.3024 83.8905 54.3389 83.9252 54.3768L89.3992 60.3764L90.6597 61.7256M91.3383 62.5452L89.3992 60.3764Z" fill="#181A27"/>
<path d="M83.8249 54.2674C83.5755 54.0128 83.2616 53.7287 82.883 53.4153C81.9369 52.6289 80.9567 52.0132 79.9424 51.5684C76.6993 50.1384 73.7281 50.6601 71.029 53.1336C69.4621 54.5695 68.2508 55.626 67.3948 56.303L66.6595 56.9768L70.0287 60.6534M83.8249 54.2674L81.1937 51.3961L82.0092 50.8098C82.8652 50.1328 84.0766 49.0763 85.6435 47.6404C88.3425 45.1669 91.3137 44.6452 94.5568 46.0753C95.5711 46.52 96.5513 47.1357 97.4975 47.9221C97.9705 48.3153 98.342 48.6621 98.6118 48.9624L102.681 53.4469C111.883 64.5716 118.306 73.6744 121.949 80.7553C125.596 87.8336 128.337 93.5782 130.173 97.989L98.3894 127.277C81.345 115.04 64.2408 109.026 47.0765 109.235C40.0347 97.2103 44.9756 92.4703 61.8993 95.0153L31.973 62.3593C31.7411 62.0886 31.484 61.7526 31.2019 61.3509C30.4921 60.3479 29.9466 59.3338 29.5656 58.3087C28.4248 55.242 28.9064 52.6101 31.0108 50.4133C33.3855 48.5055 36.0507 48.2535 39.0065 49.6569C39.9944 50.1259 40.9572 50.7575 41.8946 51.5519C42.2701 51.868 42.5812 52.1547 42.8277 52.4119L52.8633 63.3629M83.8249 54.2674C83.857 54.3024 83.8905 54.3389 83.9252 54.3768L89.3992 60.3764M70.0287 60.6534L76.0453 67.2188M70.0287 60.6534C69.7793 60.3988 69.4654 60.1148 69.0868 59.8014C68.1407 59.0149 67.1605 58.3993 66.1462 57.9545C62.903 56.5244 59.9319 57.0462 57.2328 59.5196C55.6659 60.9556 54.4545 62.012 53.5986 62.6891L52.8633 63.3629M52.8633 63.3629L62.2491 73.6048M89.3992 60.3764L90.6597 61.7256M89.3992 60.3764L91.3383 62.5452" stroke="#181A27" stroke-width="6" stroke-miterlimit="3" stroke-linecap="round" stroke-linejoin="round"/>
<path fill-rule="evenodd" clip-rule="evenodd" d="M82.7893 50.4021L80.158 47.5309L80.9736 46.9446C81.8295 46.2676 83.0409 45.2111 84.6078 43.7752C87.3069 41.3017 90.2781 40.78 93.5212 42.21C94.5355 42.6548 95.5157 43.2704 96.4618 44.0569C96.9349 44.4501 97.3063 44.7969 97.5762 45.0972L101.646 49.5816C110.847 60.7063 117.27 69.8091 120.914 76.8901C124.56 83.9683 127.302 89.7129 129.137 94.1238L97.3538 123.412C80.3094 111.174 63.2051 105.161 46.0408 105.37C38.9991 93.345 43.94 88.605 60.8636 91.15L30.9373 58.494C30.7054 58.2234 30.4484 57.8872 30.1662 57.4856C29.4564 56.4826 28.9109 55.4686 28.5299 54.4435C27.3891 51.3767 27.8708 48.7449 29.9752 46.5481C32.3498 44.6402 35.0151 44.3882 37.9709 45.7917C38.9588 46.2606 39.9216 46.8923 40.859 47.6867C41.2345 48.0028 41.5455 48.2894 41.792 48.5467L51.8276 59.4977L52.5629 58.8238C53.4188 58.1467 54.6303 57.0903 56.1972 55.6544C58.8963 53.181 61.8674 52.6592 65.1106 54.0893C66.1248 54.534 67.105 55.1497 68.0512 55.9361C68.4297 56.2496 68.7437 56.5336 68.9931 56.7882L65.6238 53.1116L66.3591 52.4378C67.2151 51.7608 68.4265 50.7043 69.9934 49.2683C72.6925 46.7949 75.6636 46.2732 78.9067 47.7032C79.9211 48.1481 80.9013 48.7637 81.8474 49.5501C82.2259 49.8635 82.5399 50.1475 82.7893 50.4021Z" fill="white"/>
<path d="M82.7893 50.4021C82.5399 50.1475 82.2259 49.8635 81.8474 49.5501C80.9012 48.7636 79.921 48.148 78.9067 47.7032C75.6636 46.2732 72.6925 46.7949 69.9934 49.2683C68.4265 50.7043 67.2151 51.7608 66.3591 52.4378L65.6238 53.1116L68.9931 56.7882M82.7893 50.4021L80.158 47.5309L80.9736 46.9446C81.8295 46.2676 83.0409 45.2111 84.6078 43.7752C87.3069 41.3017 90.2781 40.78 93.5212 42.21C94.5355 42.6548 95.5157 43.2704 96.4618 44.0569C96.9349 44.4501 97.3063 44.7969 97.5762 45.0972L101.646 49.5816C110.847 60.7063 117.27 69.8091 120.914 76.8901C124.56 83.9683 127.302 89.7129 129.137 94.1238L97.3538 123.412C80.3094 111.174 63.2051 105.161 46.0408 105.37C38.9991 93.345 43.94 88.605 60.8636 91.15L30.9373 58.494C30.7054 58.2234 30.4484 57.8874 30.1662 57.4856C29.4565 56.4827 28.9109 55.4686 28.5299 54.4435C27.3891 51.3767 27.8708 48.7449 29.9752 46.5481C32.3498 44.6402 35.0151 44.3882 37.9709 45.7917C38.9588 46.2606 39.9216 46.8922 40.859 47.6867C41.2345 48.0027 41.5455 48.2894 41.792 48.5467L51.8276 59.4977M82.7893 50.4021C82.8214 50.4371 82.8548 50.4736 82.8895 50.5115L88.3635 56.5112M68.9931 56.7882L75.0096 63.3535M68.9931 56.7882C68.7437 56.5336 68.4297 56.2496 68.0512 55.9361C67.105 55.1497 66.1248 54.534 65.1106 54.0893C61.8674 52.6592 58.8963 53.181 56.1972 55.6544C54.6303 57.0903 53.4188 58.1467 52.5629 58.8238L51.8276 59.4977M51.8276 59.4977L61.2134 69.7396M88.3635 56.5112L89.6241 57.8604M88.3635 56.5112L90.3026 58.6799" stroke="#181A27" stroke-width="6" stroke-miterlimit="3" stroke-linecap="round" stroke-linejoin="round"/>
</svg>
