<svg width="82" height="86" viewBox="0 0 82 86" fill="none" xmlns="http://www.w3.org/2000/svg">
<g clip-path="url(#clip0_68_2734)">
<rect width="86" height="86" fill="#292E42"/>
<rect x="80" width="2" height="86" fill="#181A27"/>
<rect width="2" height="86" fill="#181A27"/>
<rect x="2" width="78" height="4" fill="#474C5D"/>
<path d="M27.7582 73V62.8182H31.5763C32.3585 62.8182 33.0148 62.964 33.5451 63.2557C34.0787 63.5473 34.4814 63.9484 34.7532 64.4588C35.0283 64.9659 35.1658 65.5426 35.1658 66.1889C35.1658 66.8419 35.0283 67.4219 34.7532 67.929C34.4781 68.4361 34.0721 68.8355 33.5352 69.1271C32.9982 69.4155 32.337 69.5597 31.5515 69.5597H29.021V68.0433H31.3029C31.7603 68.0433 32.1348 67.9638 32.4265 67.8047C32.7182 67.6456 32.9336 67.4268 33.0728 67.1484C33.2153 66.87 33.2866 66.5502 33.2866 66.1889C33.2866 65.8277 33.2153 65.5095 33.0728 65.2344C32.9336 64.9593 32.7165 64.7455 32.4215 64.593C32.1299 64.4373 31.7537 64.3594 31.293 64.3594H29.6026V73H27.7582ZM38.4881 62.8182V73H36.6884V62.8182H38.4881ZM42.5362 73.1541C42.0523 73.1541 41.6165 73.0679 41.2287 72.8956C40.8442 72.7199 40.5393 72.4614 40.3139 72.12C40.0919 71.7786 39.9808 71.3577 39.9808 70.8572C39.9808 70.4264 40.0604 70.0701 40.2195 69.7884C40.3786 69.5066 40.5956 69.2812 40.8707 69.1122C41.1458 68.9432 41.4557 68.8156 41.8004 68.7294C42.1484 68.6399 42.508 68.5753 42.8793 68.5355C43.3267 68.4891 43.6896 68.4477 43.968 68.4112C44.2464 68.3714 44.4486 68.3118 44.5746 68.2322C44.7038 68.1494 44.7685 68.0218 44.7685 67.8494V67.8196C44.7685 67.4451 44.6574 67.1551 44.4354 66.9496C44.2133 66.7441 43.8935 66.6413 43.4759 66.6413C43.035 66.6413 42.6854 66.7375 42.4268 66.9297C42.1716 67.1219 41.9993 67.349 41.9098 67.6108L40.2294 67.3722C40.362 66.9081 40.5807 66.5204 40.8857 66.2088C41.1906 65.8939 41.5634 65.6586 42.0043 65.5028C42.4451 65.3438 42.9323 65.2642 43.4659 65.2642C43.8338 65.2642 44.2 65.3073 44.5646 65.3935C44.9292 65.4796 45.2623 65.6222 45.5639 65.821C45.8655 66.0166 46.1075 66.2834 46.2898 66.6214C46.4754 66.9595 46.5682 67.3821 46.5682 67.8892V73H44.8381V71.951H44.7784C44.669 72.1631 44.5149 72.362 44.3161 72.5476C44.1205 72.7299 43.8736 72.8774 43.5753 72.9901C43.2803 73.0994 42.9339 73.1541 42.5362 73.1541ZM43.0036 71.8317C43.3648 71.8317 43.678 71.7604 43.9432 71.6179C44.2083 71.4721 44.4122 71.2798 44.5547 71.0412C44.7005 70.8026 44.7734 70.5424 44.7734 70.2607V69.3608C44.7171 69.4072 44.621 69.4503 44.4851 69.4901C44.3525 69.5298 44.2034 69.5646 44.0376 69.5945C43.8719 69.6243 43.7079 69.6508 43.5455 69.674C43.383 69.6972 43.2422 69.7171 43.1229 69.7337C42.8544 69.7701 42.6141 69.8298 42.402 69.9126C42.1899 69.9955 42.0225 70.1115 41.8999 70.2607C41.7772 70.4065 41.7159 70.5954 41.7159 70.8274C41.7159 71.1589 41.8369 71.4091 42.0788 71.5781C42.3208 71.7472 42.629 71.8317 43.0036 71.8317ZM49.223 75.8636C48.9777 75.8636 48.7507 75.8438 48.5419 75.804C48.3364 75.7675 48.1723 75.7244 48.0497 75.6747L48.4673 74.2727C48.7292 74.349 48.9628 74.3854 49.1683 74.3821C49.3738 74.3788 49.5545 74.3142 49.7102 74.1882C49.8693 74.0656 50.0036 73.8601 50.1129 73.5717L50.267 73.1591L47.4979 65.3636H49.407L51.1669 71.1307H51.2464L53.0114 65.3636H54.9254L51.8679 73.9247C51.7254 74.3291 51.5365 74.6754 51.3011 74.9638C51.0658 75.2554 50.7775 75.4775 50.4361 75.63C50.098 75.7857 49.6937 75.8636 49.223 75.8636Z" fill="#474C5D"/>
<g clip-path="url(#clip1_68_2734)">
<g filter="url(#filter0_d_68_2734)">
<path d="M32.5 44.6109V21.3896C32.5 20.2769 33.7239 19.5986 34.6675 20.1883L53.2445 31.799C54.1324 32.3538 54.1324 33.6468 53.2445 34.2017L34.6675 45.8122C33.7239 46.402 32.5 45.7237 32.5 44.6109Z" fill="#474C5D"/>
</g>
</g>
</g>
<defs>
<filter id="filter0_d_68_2734" x="32.5" y="19.9707" width="21.4104" height="30.0591" filterUnits="userSpaceOnUse" color-interpolation-filters="sRGB">
<feFlood flood-opacity="0" result="BackgroundImageFix"/>
<feColorMatrix in="SourceAlpha" type="matrix" values="0 0 0 0 0 0 0 0 0 0 0 0 0 0 0 0 0 0 127 0" result="hardAlpha"/>
<feOffset dy="4"/>
<feComposite in2="hardAlpha" operator="out"/>
<feColorMatrix type="matrix" values="0 0 0 0 0.0941176 0 0 0 0 0.101961 0 0 0 0 0.152941 0 0 0 0.4 0"/>
<feBlend mode="normal" in2="BackgroundImageFix" result="effect1_dropShadow_68_2734"/>
<feBlend mode="normal" in="SourceGraphic" in2="effect1_dropShadow_68_2734" result="shape"/>
</filter>
<clipPath id="clip0_68_2734">
<rect width="82" height="86" fill="white"/>
</clipPath>
<clipPath id="clip1_68_2734">
<rect width="34" height="34" fill="white" transform="translate(24 16)"/>
</clipPath>
</defs>
</svg>
