<svg width="102" height="92" viewBox="0 0 102 92" fill="none" xmlns="http://www.w3.org/2000/svg">
<g clip-path="url(#clip0_68_2743)">
<rect width="102" height="72" fill="url(#paint0_linear_68_2743)"/>
<g filter="url(#filter0_d_68_2743)">
<path d="M41 47.6604V20.3412C41 19.0322 42.4399 18.2341 43.55 18.9279L65.4053 32.5875C66.4498 33.2402 66.4498 34.7614 65.4053 35.4142L43.55 49.0737C42.4399 49.7675 41 48.9695 41 47.6604Z" fill="white"/>
<path d="M40 20.3408C40.0003 18.2466 42.3041 16.9701 44.0801 18.0801L65.9355 31.7393C67.6067 32.7836 67.6062 35.2172 65.9355 36.2617L44.0801 49.9219C42.304 51.032 40 49.7548 40 47.6602V20.3408Z" stroke="#181A27" stroke-width="2"/>
</g>
<rect y="72" width="102" height="20" fill="#A75600"/>
<rect opacity="0.6" width="102" height="6" fill="white"/>
<rect opacity="0.4" y="68" width="102" height="4" fill="white"/>
</g>
<defs>
<filter id="filter0_d_68_2743" x="39" y="16.6685" width="29.1887" height="38.6646" filterUnits="userSpaceOnUse" color-interpolation-filters="sRGB">
<feFlood flood-opacity="0" result="BackgroundImageFix"/>
<feColorMatrix in="SourceAlpha" type="matrix" values="0 0 0 0 0 0 0 0 0 0 0 0 0 0 0 0 0 0 127 0" result="hardAlpha"/>
<feOffset dy="4"/>
<feComposite in2="hardAlpha" operator="out"/>
<feColorMatrix type="matrix" values="0 0 0 0 0.0941176 0 0 0 0 0.101961 0 0 0 0 0.152941 0 0 0 1 0"/>
<feBlend mode="normal" in2="BackgroundImageFix" result="effect1_dropShadow_68_2743"/>
<feBlend mode="normal" in="SourceGraphic" in2="effect1_dropShadow_68_2743" result="shape"/>
</filter>
<linearGradient id="paint0_linear_68_2743" x1="51" y1="0" x2="51" y2="72" gradientUnits="userSpaceOnUse">
<stop stop-color="#FFB60C"/>
<stop offset="1" stop-color="#FF931F"/>
</linearGradient>
<clipPath id="clip0_68_2743">
<rect width="102" height="92" fill="white"/>
</clipPath>
</defs>
</svg>
