<svg width="102" height="92" viewBox="0 0 102 92" fill="none" xmlns="http://www.w3.org/2000/svg">
<g clip-path="url(#clip0_68_2750)">
<rect width="102" height="72" fill="url(#paint0_linear_68_2750)"/>
<g filter="url(#filter0_d_68_2750)">
<path d="M64.3409 35.6693V47.3359C64.3409 48.2564 63.5947 49.0026 62.6742 49.0026H39.3408C38.4204 49.0026 37.6742 48.2564 37.6742 47.3359V35.6693H64.3409ZM55.1742 17.3359C58.3959 17.3359 61.0075 19.9476 61.0075 23.1693C61.0075 24.0646 60.8059 24.9128 60.4454 25.671L66.0075 25.6693C66.928 25.6693 67.6742 26.4155 67.6742 27.3359V32.3359C67.6742 33.2564 66.928 34.0026 66.0075 34.0026H36.0075C35.087 34.0026 34.3408 33.2564 34.3408 32.3359V27.3359C34.3408 26.4155 35.087 25.6693 36.0075 25.6693L41.5697 25.671C41.2092 24.9128 41.0075 24.0646 41.0075 23.1693C41.0075 19.9476 43.6192 17.3359 46.8408 17.3359C48.4742 17.3359 49.9507 18.0072 51.0095 19.0889C52.0644 18.0072 53.5409 17.3359 55.1742 17.3359ZM46.8408 20.6693C45.4601 20.6693 44.3408 21.7886 44.3408 23.1693C44.3408 24.4688 45.3323 25.5367 46.6001 25.6578L46.8408 25.6693H49.3409V23.1693C49.3409 21.8698 48.3494 20.8019 47.0816 20.6807L46.8408 20.6693ZM55.1742 20.6693L54.9334 20.6807C53.7449 20.7943 52.7992 21.74 52.6855 22.9285L52.6742 23.1693V25.6693H55.1742L55.4149 25.6578C56.6827 25.5367 57.6742 24.4688 57.6742 23.1693C57.6742 21.8698 56.6827 20.8019 55.4149 20.6807L55.1742 20.6693Z" fill="white"/>
<path d="M55.1738 16.3359C58.9477 16.3359 62.0076 19.3951 62.0078 23.1689C62.0078 23.684 61.9492 24.1865 61.8408 24.6699L66.0068 24.6689H66.0078C67.4805 24.6691 68.6738 25.8633 68.6738 27.3359V32.3359C68.6738 33.8086 67.4805 35.0028 66.0078 35.0029H65.3408V47.3359C65.3408 48.8087 64.1466 50.0029 62.6738 50.0029H39.3408C37.8681 50.0029 36.6738 48.8087 36.6738 47.3359V35.0029H36.0078C34.5351 35.0029 33.3408 33.8087 33.3408 32.3359V27.3359C33.3408 25.8632 34.5351 24.6689 36.0078 24.6689L40.1738 24.6699C40.0654 24.1865 40.0078 23.684 40.0078 23.1689C40.008 19.3951 43.067 16.3359 46.8408 16.3359C48.4095 16.3359 49.8557 16.8654 51.0088 17.7539C52.16 16.8651 53.6061 16.336 55.1738 16.3359ZM55.0107 21.6777C54.3156 21.7525 53.7612 22.3055 53.6836 23L53.6738 23.1953V24.6689H55.1484L55.3271 24.6602C56.0832 24.5841 56.6738 23.9454 56.6738 23.1689C56.6737 22.3952 56.0873 21.7574 55.335 21.6777L55.1738 21.6699L55.0107 21.6777ZM46.8271 21.6689C46.0051 21.6763 45.341 22.3452 45.3408 23.1689C45.3408 23.945 45.9312 24.5835 46.6865 24.6602L46.8672 24.6689H48.3408V23.1689C48.3407 22.3953 47.754 21.7575 47.002 21.6777L46.8271 21.6689Z" stroke="#181A27" stroke-width="2"/>
</g>
<rect y="72" width="102" height="20" fill="#A75600"/>
<rect opacity="0.6" width="102" height="6" fill="white"/>
<rect opacity="0.4" y="68" width="102" height="4" fill="white"/>
</g>
<defs>
<filter id="filter0_d_68_2750" x="32.3408" y="15.3359" width="37.3333" height="39.6665" filterUnits="userSpaceOnUse" color-interpolation-filters="sRGB">
<feFlood flood-opacity="0" result="BackgroundImageFix"/>
<feColorMatrix in="SourceAlpha" type="matrix" values="0 0 0 0 0 0 0 0 0 0 0 0 0 0 0 0 0 0 127 0" result="hardAlpha"/>
<feOffset dy="4"/>
<feComposite in2="hardAlpha" operator="out"/>
<feColorMatrix type="matrix" values="0 0 0 0 0.0941176 0 0 0 0 0.101961 0 0 0 0 0.152941 0 0 0 1 0"/>
<feBlend mode="normal" in2="BackgroundImageFix" result="effect1_dropShadow_68_2750"/>
<feBlend mode="normal" in="SourceGraphic" in2="effect1_dropShadow_68_2750" result="shape"/>
</filter>
<linearGradient id="paint0_linear_68_2750" x1="51" y1="0" x2="51" y2="72" gradientUnits="userSpaceOnUse">
<stop stop-color="#FFB60C"/>
<stop offset="1" stop-color="#FF931F"/>
</linearGradient>
<clipPath id="clip0_68_2750">
<rect width="102" height="92" fill="white"/>
</clipPath>
</defs>
</svg>
