<svg width="102" height="92" viewBox="0 0 102 92" fill="none" xmlns="http://www.w3.org/2000/svg">
<g clip-path="url(#clip0_68_2771)">
<rect width="102" height="72" fill="url(#paint0_linear_68_2771)"/>
<g clip-path="url(#clip1_68_2771)">
<g filter="url(#filter0_d_68_2771)">
<path d="M34.333 20.6557C34.333 19.7413 35.0919 19 35.986 19H66.0133C66.9263 19 67.6663 19.7416 67.6663 20.6557V47.3443C67.6663 48.2587 66.9075 49 66.0133 49H35.986C35.0731 49 34.333 48.2585 34.333 47.3443V20.6557ZM50.9997 22.3333V45.6667H64.333V22.3333H50.9997ZM52.6663 25.6667H62.6663V29H52.6663V25.6667ZM52.6663 30.6667H62.6663V34H52.6663V30.6667Z" fill="white"/>
<path d="M66.0137 18C67.4803 18.0002 68.6658 19.1909 68.666 20.6553V47.3447C68.6658 48.8169 67.454 49.9998 66.0137 50H35.9863C34.5197 50 33.3332 48.8094 33.333 47.3447V20.6553C33.3332 19.1829 34.5459 18 35.9863 18H66.0137ZM52 44.667H63.333V35H52V44.667ZM52 24.667H63.333V23.333H52V24.667Z" stroke="#181A27" stroke-width="2"/>
</g>
</g>
<rect y="72" width="102" height="20" fill="#A75600"/>
<rect opacity="0.6" width="102" height="6" fill="white"/>
<rect opacity="0.4" y="68" width="102" height="4" fill="white"/>
</g>
<defs>
<filter id="filter0_d_68_2771" x="32.333" y="17" width="37.3333" height="38" filterUnits="userSpaceOnUse" color-interpolation-filters="sRGB">
<feFlood flood-opacity="0" result="BackgroundImageFix"/>
<feColorMatrix in="SourceAlpha" type="matrix" values="0 0 0 0 0 0 0 0 0 0 0 0 0 0 0 0 0 0 127 0" result="hardAlpha"/>
<feOffset dy="4"/>
<feComposite in2="hardAlpha" operator="out"/>
<feColorMatrix type="matrix" values="0 0 0 0 0.0941176 0 0 0 0 0.101961 0 0 0 0 0.152941 0 0 0 1 0"/>
<feBlend mode="normal" in2="BackgroundImageFix" result="effect1_dropShadow_68_2771"/>
<feBlend mode="normal" in="SourceGraphic" in2="effect1_dropShadow_68_2771" result="shape"/>
</filter>
<linearGradient id="paint0_linear_68_2771" x1="51" y1="0" x2="51" y2="72" gradientUnits="userSpaceOnUse">
<stop stop-color="#FFB60C"/>
<stop offset="1" stop-color="#FF931F"/>
</linearGradient>
<clipPath id="clip0_68_2771">
<rect width="102" height="92" fill="white"/>
</clipPath>
<clipPath id="clip1_68_2771">
<rect width="40" height="40" fill="white" transform="translate(31 14)"/>
</clipPath>
</defs>
</svg>
