<svg width="48" height="52" viewBox="0 0 48 52" fill="none" xmlns="http://www.w3.org/2000/svg">
<g filter="url(#filter0_d_72_7047)">
<g clip-path="url(#clip0_72_7047)">
<rect width="48" height="48" rx="8" fill="#A75600"/>
<rect x="1" y="1" width="46" height="42" rx="7" fill="url(#paint0_linear_72_7047)" stroke="url(#paint1_linear_72_7047)" stroke-width="2"/>
<g clip-path="url(#clip1_72_7047)">
<g filter="url(#filter1_d_72_7047)">
<path d="M21.954 10.2106C23.2876 9.93144 24.6807 9.92263 26.0449 10.2078C26.2219 11.3674 26.9048 12.4389 27.9997 13.071C29.0945 13.7031 30.364 13.7588 31.4566 13.3323C32.3858 14.3712 33.0747 15.582 33.4997 16.8765C32.5852 17.6096 31.9997 18.736 31.9997 19.9992C31.9997 21.2632 32.5859 22.3902 33.5013 23.1232C33.29 23.7636 33.0104 24.3922 32.6599 24.9992C32.3094 25.6063 31.9049 26.1627 31.4559 26.6659C30.3634 26.2396 29.0943 26.2955 27.9997 26.9274C26.9057 27.559 26.223 28.6294 26.0453 29.7879C24.7118 30.067 23.3187 30.0758 21.9544 29.7906C21.7775 28.6311 21.0945 27.5595 19.9997 26.9274C18.9048 26.2953 17.6354 26.2396 16.5427 26.6662C15.6136 25.6273 14.9247 24.4164 14.4996 23.1219C15.4141 22.3889 15.9997 21.2624 15.9997 19.9992C15.9997 18.7353 15.4134 17.6083 14.498 16.8752C14.7093 16.2348 14.9889 15.6063 15.3394 14.9992C15.6899 14.3922 16.0944 13.8358 16.5434 13.3326C17.6359 13.7588 18.9051 13.703 19.9997 13.071C21.0936 12.4394 21.7764 11.3691 21.954 10.2106ZM23.9997 22.9992C25.6565 22.9992 26.9997 21.6561 26.9997 19.9992C26.9997 18.3424 25.6565 16.9992 23.9997 16.9992C22.3428 16.9992 20.9997 18.3424 20.9997 19.9992C20.9997 21.6561 22.3428 22.9992 23.9997 22.9992Z" fill="white"/>
</g>
</g>
</g>
</g>
<defs>
<filter id="filter0_d_72_7047" x="0" y="0" width="48" height="52" filterUnits="userSpaceOnUse" color-interpolation-filters="sRGB">
<feFlood flood-opacity="0" result="BackgroundImageFix"/>
<feColorMatrix in="SourceAlpha" type="matrix" values="0 0 0 0 0 0 0 0 0 0 0 0 0 0 0 0 0 0 127 0" result="hardAlpha"/>
<feOffset dy="4"/>
<feComposite in2="hardAlpha" operator="out"/>
<feColorMatrix type="matrix" values="0 0 0 0 0 0 0 0 0 0 0 0 0 0 0 0 0 0 0.2 0"/>
<feBlend mode="normal" in2="BackgroundImageFix" result="effect1_dropShadow_72_7047"/>
<feBlend mode="normal" in="SourceGraphic" in2="effect1_dropShadow_72_7047" result="shape"/>
</filter>
<filter id="filter1_d_72_7047" x="14.498" y="9.99756" width="19.0032" height="23.0034" filterUnits="userSpaceOnUse" color-interpolation-filters="sRGB">
<feFlood flood-opacity="0" result="BackgroundImageFix"/>
<feColorMatrix in="SourceAlpha" type="matrix" values="0 0 0 0 0 0 0 0 0 0 0 0 0 0 0 0 0 0 127 0" result="hardAlpha"/>
<feOffset dy="3"/>
<feComposite in2="hardAlpha" operator="out"/>
<feColorMatrix type="matrix" values="0 0 0 0 0.654902 0 0 0 0 0.337255 0 0 0 0 0 0 0 0 1 0"/>
<feBlend mode="normal" in2="BackgroundImageFix" result="effect1_dropShadow_72_7047"/>
<feBlend mode="normal" in="SourceGraphic" in2="effect1_dropShadow_72_7047" result="shape"/>
</filter>
<linearGradient id="paint0_linear_72_7047" x1="24" y1="0" x2="24" y2="44" gradientUnits="userSpaceOnUse">
<stop stop-color="#FFB60C"/>
<stop offset="1" stop-color="#FF931F"/>
</linearGradient>
<linearGradient id="paint1_linear_72_7047" x1="24" y1="0" x2="24" y2="44" gradientUnits="userSpaceOnUse">
<stop offset="0.8" stop-color="white" stop-opacity="0"/>
<stop offset="1" stop-color="white" stop-opacity="0.4"/>
</linearGradient>
<clipPath id="clip0_72_7047">
<rect width="48" height="48" rx="8" fill="white"/>
</clipPath>
<clipPath id="clip1_72_7047">
<rect width="24" height="24" fill="white" transform="translate(12 8)"/>
</clipPath>
</defs>
</svg>
