<svg width="102" height="92" viewBox="0 0 102 92" fill="none" xmlns="http://www.w3.org/2000/svg">
<g clip-path="url(#clip0_68_2764)">
<rect width="102" height="72" fill="url(#paint0_linear_68_2764)"/>
<g filter="url(#filter0_d_68_2764)">
<path d="M37.6739 24.695L32.2695 19.2906L34.6265 16.9336L40.0309 22.338H65.4338C66.3543 22.338 67.1005 23.0842 67.1005 24.0047C67.1005 24.1669 67.0768 24.3282 67.0303 24.4836L63.0303 37.8169C62.8188 38.5219 62.1698 39.0047 61.4338 39.0047H41.0073V42.3381H59.3407V45.6714H39.3406C38.4201 45.6714 37.6739 44.9251 37.6739 44.0047V24.695ZM40.1739 52.3381C38.7932 52.3381 37.6739 51.2187 37.6739 49.8381C37.6739 48.4572 38.7932 47.3381 40.1739 47.3381C41.5547 47.3381 42.6739 48.4572 42.6739 49.8381C42.6739 51.2187 41.5547 52.3381 40.1739 52.3381ZM60.174 52.3381C58.7932 52.3381 57.674 51.2187 57.674 49.8381C57.674 48.4572 58.7932 47.3381 60.174 47.3381C61.5547 47.3381 62.674 48.4572 62.674 49.8381C62.674 51.2187 61.5547 52.3381 60.174 52.3381Z" fill="white"/>
<path d="M40.4453 21.3379H65.4336C66.9064 21.3379 68.1006 22.5321 68.1006 24.0049C68.1006 24.1993 68.079 24.3928 68.0371 24.582L67.9883 24.7705L63.9883 38.1045C63.6498 39.2324 62.6111 40.0049 61.4336 40.0049H42.0068V41.3379H60.3408V46.3418C62.1962 46.4289 63.6737 47.9607 63.6738 49.8379C63.6738 51.7708 62.1068 53.3379 60.1738 53.3379C58.2407 53.3378 56.6738 51.7707 56.6738 49.8379C56.6739 48.4388 57.4952 47.232 58.6816 46.6719H41.666C42.8525 47.232 43.6738 48.4387 43.6738 49.8379C43.6738 51.7708 42.1068 53.3379 40.1738 53.3379C38.2409 53.3378 36.6738 51.7708 36.6738 49.8379C36.6739 48.3916 37.5514 47.1506 38.8027 46.6172C37.5878 46.3683 36.6739 45.2932 36.6738 44.0049V25.1094L30.8555 19.291L34.627 15.5195L40.4453 21.3379Z" stroke="#181A27" stroke-width="2"/>
</g>
<rect y="72" width="102" height="20" fill="#A75600"/>
<rect opacity="0.6" width="102" height="6" fill="white"/>
<rect opacity="0.4" y="68" width="102" height="4" fill="white"/>
</g>
<defs>
<filter id="filter0_d_68_2764" x="29.4412" y="14.105" width="39.6594" height="44.2329" filterUnits="userSpaceOnUse" color-interpolation-filters="sRGB">
<feFlood flood-opacity="0" result="BackgroundImageFix"/>
<feColorMatrix in="SourceAlpha" type="matrix" values="0 0 0 0 0 0 0 0 0 0 0 0 0 0 0 0 0 0 127 0" result="hardAlpha"/>
<feOffset dy="4"/>
<feComposite in2="hardAlpha" operator="out"/>
<feColorMatrix type="matrix" values="0 0 0 0 0.0941176 0 0 0 0 0.101961 0 0 0 0 0.152941 0 0 0 1 0"/>
<feBlend mode="normal" in2="BackgroundImageFix" result="effect1_dropShadow_68_2764"/>
<feBlend mode="normal" in="SourceGraphic" in2="effect1_dropShadow_68_2764" result="shape"/>
</filter>
<linearGradient id="paint0_linear_68_2764" x1="51" y1="0" x2="51" y2="72" gradientUnits="userSpaceOnUse">
<stop stop-color="#FFB60C"/>
<stop offset="1" stop-color="#FF931F"/>
</linearGradient>
<clipPath id="clip0_68_2764">
<rect width="102" height="92" fill="white"/>
</clipPath>
</defs>
</svg>
