<svg width="82" height="86" viewBox="0 0 82 86" fill="none" xmlns="http://www.w3.org/2000/svg">
<g clip-path="url(#clip0_68_2702)">
<rect x="-2" width="86" height="86" fill="#292E42"/>
<rect x="80" width="2" height="86" fill="#181A27"/>
<rect width="2" height="86" fill="#181A27"/>
<rect x="2" width="78" height="4" fill="#474C5D"/>
<g filter="url(#filter0_d_68_2702)">
<path d="M42.4239 39.9996V42.9205H49.5072V45.7538H32.5072V42.9205H39.5905V39.9996C33.9999 39.3025 29.6738 34.5334 29.6738 28.7539V20.2539H52.3405V28.7539C52.3405 34.5334 48.0144 39.3025 42.4239 39.9996ZM25.4238 23.0872H28.2572V28.7539H25.4238V23.0872ZM53.7572 23.0872H56.5905V28.7539H53.7572V23.0872Z" fill="#474C5D"/>
</g>
<path d="M28.8556 64.3643V62.8182H36.9792V64.3643H33.8322V73H32.0027V64.3643H28.8556ZM40.6893 73.1491C39.9435 73.1491 39.2972 72.9851 38.7504 72.657C38.2035 72.3288 37.7792 71.8698 37.4776 71.2798C37.1793 70.6899 37.0302 70.0005 37.0302 69.2116C37.0302 68.4228 37.1793 67.7318 37.4776 67.1385C37.7792 66.5452 38.2035 66.0845 38.7504 65.7564C39.2972 65.4283 39.9435 65.2642 40.6893 65.2642C41.435 65.2642 42.0813 65.4283 42.6282 65.7564C43.1751 66.0845 43.5977 66.5452 43.896 67.1385C44.1976 67.7318 44.3484 68.4228 44.3484 69.2116C44.3484 70.0005 44.1976 70.6899 43.896 71.2798C43.5977 71.8698 43.1751 72.3288 42.6282 72.657C42.0813 72.9851 41.435 73.1491 40.6893 73.1491ZM40.6992 71.7074C41.1036 71.7074 41.4416 71.5964 41.7134 71.3743C41.9852 71.1489 42.1874 70.8473 42.32 70.4695C42.4558 70.0916 42.5238 69.6707 42.5238 69.2067C42.5238 68.7393 42.4558 68.3168 42.32 67.9389C42.1874 67.5578 41.9852 67.2545 41.7134 67.0291C41.4416 66.8037 41.1036 66.6911 40.6992 66.6911C40.2849 66.6911 39.9402 66.8037 39.6651 67.0291C39.3933 67.2545 39.1895 67.5578 39.0536 67.9389C38.921 68.3168 38.8548 68.7393 38.8548 69.2067C38.8548 69.6707 38.921 70.0916 39.0536 70.4695C39.1895 70.8473 39.3933 71.1489 39.6651 71.3743C39.9402 71.5964 40.2849 71.7074 40.6992 71.7074ZM45.8759 75.8636V65.3636H47.6458V66.6264H47.7502C47.843 66.4408 47.9739 66.2436 48.1429 66.0348C48.312 65.8227 48.5407 65.642 48.829 65.4929C49.1174 65.3404 49.4853 65.2642 49.9327 65.2642C50.5227 65.2642 51.0546 65.415 51.5286 65.7166C52.0059 66.0149 52.3837 66.4574 52.6621 67.044C52.9438 67.6274 53.0847 68.3433 53.0847 69.1918C53.0847 70.0303 52.9471 70.7429 52.6721 71.3295C52.397 71.9162 52.0224 72.3636 51.5485 72.6719C51.0745 72.9801 50.5376 73.1342 49.9377 73.1342C49.5002 73.1342 49.1373 73.0613 48.8489 72.9155C48.5605 72.7696 48.3285 72.594 48.1529 72.3885C47.9805 72.1797 47.8463 71.9825 47.7502 71.7969H47.6756V75.8636H45.8759ZM47.6408 69.1818C47.6408 69.6757 47.7104 70.1082 47.8496 70.4794C47.9921 70.8506 48.196 71.1406 48.4611 71.3494C48.7296 71.5549 49.0544 71.6577 49.4355 71.6577C49.8333 71.6577 50.1664 71.5516 50.4348 71.3395C50.7033 71.1241 50.9055 70.8307 51.0414 70.4595C51.1806 70.085 51.2502 69.6591 51.2502 69.1818C51.2502 68.7079 51.1822 68.2869 51.0463 67.919C50.9105 67.5511 50.7083 67.2628 50.4398 67.054C50.1713 66.8452 49.8366 66.7408 49.4355 66.7408C49.0511 66.7408 48.7246 66.8419 48.4561 67.044C48.1877 67.2462 47.9838 67.5296 47.8446 67.8942C47.7087 68.2588 47.6408 68.688 47.6408 69.1818Z" fill="#474C5D"/>
</g>
<defs>
<filter id="filter0_d_68_2702" x="25.4238" y="20.2539" width="31.1667" height="29.5" filterUnits="userSpaceOnUse" color-interpolation-filters="sRGB">
<feFlood flood-opacity="0" result="BackgroundImageFix"/>
<feColorMatrix in="SourceAlpha" type="matrix" values="0 0 0 0 0 0 0 0 0 0 0 0 0 0 0 0 0 0 127 0" result="hardAlpha"/>
<feOffset dy="4"/>
<feComposite in2="hardAlpha" operator="out"/>
<feColorMatrix type="matrix" values="0 0 0 0 0.0941176 0 0 0 0 0.101961 0 0 0 0 0.152941 0 0 0 0.4 0"/>
<feBlend mode="normal" in2="BackgroundImageFix" result="effect1_dropShadow_68_2702"/>
<feBlend mode="normal" in="SourceGraphic" in2="effect1_dropShadow_68_2702" result="shape"/>
</filter>
<clipPath id="clip0_68_2702">
<rect width="82" height="86" fill="white"/>
</clipPath>
</defs>
</svg>
