<svg width="336" height="56" viewBox="0 0 336 56" fill="none" xmlns="http://www.w3.org/2000/svg">
<g clip-path="url(#clip0_72_7687)">
<rect y="8" width="336" height="48" rx="8" fill="#181A27"/>
<rect width="336" height="48" rx="8" fill="#494D5E"/>
<rect x="1" y="1" width="334" height="46" rx="7" stroke="white" stroke-opacity="0.1" stroke-width="2"/>
<g filter="url(#filter0_d_72_7687)">
<path d="M49.0895 28.1065C48.5284 28.1065 48.0455 27.9929 47.6406 27.7656C47.2382 27.536 46.928 27.2116 46.7102 26.7926C46.4924 26.3712 46.3835 25.8729 46.3835 25.2976C46.3835 24.7365 46.4924 24.2441 46.7102 23.8203C46.928 23.3965 47.2346 23.0663 47.63 22.8295C48.0277 22.5928 48.4941 22.4744 49.0291 22.4744C49.389 22.4744 49.724 22.5324 50.0341 22.6484C50.3466 22.7621 50.6188 22.9337 50.8509 23.1634C51.0852 23.393 51.2675 23.6818 51.3977 24.0298C51.5279 24.3755 51.593 24.7803 51.593 25.2443V25.6598H46.9872V24.7223H50.169C50.169 24.5045 50.1217 24.3116 50.027 24.1435C49.9323 23.9754 49.8009 23.844 49.6328 23.7493C49.4671 23.6522 49.2741 23.6037 49.054 23.6037C48.8243 23.6037 48.6207 23.657 48.4432 23.7635C48.268 23.8677 48.1307 24.0085 48.0312 24.1861C47.9318 24.3613 47.8809 24.5566 47.8786 24.772V25.6634C47.8786 25.9332 47.9283 26.1664 48.0277 26.3629C48.1295 26.5594 48.2727 26.7109 48.4574 26.8175C48.642 26.924 48.861 26.9773 49.1143 26.9773C49.2824 26.9773 49.4363 26.9536 49.576 26.9062C49.7157 26.8589 49.8352 26.7879 49.9347 26.6932C50.0341 26.5985 50.1098 26.4825 50.1619 26.3452L51.5611 26.4375C51.4901 26.7737 51.3445 27.0672 51.1243 27.3182C50.9065 27.5668 50.6248 27.7609 50.2791 27.9006C49.9358 28.0379 49.5393 28.1065 49.0895 28.1065ZM54.1468 22.5455L55.1482 24.4524L56.1745 22.5455H57.7263L56.1461 25.2727L57.769 28H56.2242L55.1482 26.1143L54.09 28H52.5275L54.1468 25.2727L52.5843 22.5455H54.1468ZM60.5509 28.103C60.2029 28.103 59.8927 28.0426 59.6205 27.9219C59.3482 27.7988 59.1328 27.6177 58.9742 27.3786C58.8179 27.1371 58.7398 26.8364 58.7398 26.4766C58.7398 26.1735 58.7954 25.919 58.9067 25.7131C59.018 25.5071 59.1695 25.3414 59.3613 25.2159C59.553 25.0904 59.7708 24.9957 60.0147 24.9318C60.2609 24.8679 60.5189 24.8229 60.7888 24.7969C61.106 24.7637 61.3617 24.733 61.5559 24.7045C61.75 24.6738 61.8909 24.6288 61.9784 24.5696C62.066 24.5104 62.1098 24.4228 62.1098 24.3068V24.2855C62.1098 24.0606 62.0388 23.8866 61.8968 23.7635C61.7571 23.6404 61.5582 23.5788 61.3002 23.5788C61.0279 23.5788 60.8113 23.6392 60.6503 23.7599C60.4893 23.8783 60.3828 24.0275 60.3307 24.2074L58.9316 24.0938C59.0026 23.7623 59.1423 23.4759 59.3506 23.2344C59.5589 22.9905 59.8276 22.8035 60.1567 22.6733C60.4882 22.5407 60.8717 22.4744 61.3073 22.4744C61.6103 22.4744 61.9003 22.5099 62.1773 22.581C62.4567 22.652 62.7041 22.7621 62.9195 22.9112C63.1373 23.0604 63.3089 23.2521 63.4344 23.4865C63.5599 23.7185 63.6226 23.9967 63.6226 24.321V28H62.188V27.2436H62.1453C62.0578 27.4141 61.9406 27.5644 61.7938 27.6946C61.647 27.8224 61.4706 27.9231 61.2647 27.9964C61.0587 28.0675 60.8208 28.103 60.5509 28.103ZM60.9841 27.0589C61.2067 27.0589 61.4032 27.0152 61.5736 26.9276C61.7441 26.8376 61.8778 26.7169 61.9749 26.5653C62.072 26.4138 62.1205 26.2422 62.1205 26.0504V25.4716C62.0731 25.5024 62.008 25.5308 61.9252 25.5568C61.8447 25.5805 61.7535 25.603 61.6517 25.6243C61.5499 25.6432 61.4481 25.661 61.3463 25.6776C61.2445 25.6918 61.1522 25.7048 61.0694 25.7166C60.8918 25.7427 60.7367 25.7841 60.6042 25.8409C60.4716 25.8977 60.3686 25.9747 60.2952 26.0717C60.2218 26.1664 60.1851 26.2848 60.1851 26.4268C60.1851 26.6328 60.2597 26.7902 60.4088 26.8991C60.5604 27.0057 60.7521 27.0589 60.9841 27.0589ZM65.1963 28V22.5455H66.638V23.5078H66.702C66.8156 23.1882 67.005 22.9361 67.2701 22.7514C67.5353 22.5668 67.8525 22.4744 68.2218 22.4744C68.5959 22.4744 68.9143 22.5679 69.1771 22.755C69.4399 22.9396 69.6151 23.1906 69.7027 23.5078H69.7595C69.8708 23.1953 70.072 22.9455 70.3632 22.7585C70.6567 22.5691 71.0036 22.4744 71.4037 22.4744C71.9127 22.4744 72.3258 22.6366 72.643 22.9609C72.9626 23.2829 73.1224 23.7398 73.1224 24.3317V28H71.6132V24.63C71.6132 24.3269 71.5327 24.0997 71.3717 23.9482C71.2107 23.7966 71.0095 23.7209 70.768 23.7209C70.4934 23.7209 70.2791 23.8085 70.1252 23.9837C69.9714 24.1565 69.8944 24.3849 69.8944 24.669V28H68.4278V24.598C68.4278 24.3305 68.3509 24.1174 68.197 23.9588C68.0455 23.8002 67.8454 23.7209 67.5968 23.7209C67.4288 23.7209 67.2772 23.7635 67.1423 23.8487C67.0097 23.9316 66.9044 24.0488 66.8262 24.2003C66.7481 24.3494 66.7091 24.5246 66.7091 24.7259V28H65.1963ZM74.7174 30.0455V22.5455H76.2088V23.4616H76.2763C76.3426 23.3149 76.4385 23.1657 76.564 23.0142C76.6918 22.8603 76.8575 22.7325 77.0611 22.6307C77.2671 22.5265 77.5228 22.4744 77.8282 22.4744C78.2259 22.4744 78.5928 22.5786 78.929 22.7869C79.2652 22.9929 79.5339 23.3042 79.7351 23.7209C79.9364 24.1352 80.037 24.6548 80.037 25.2798C80.037 25.8883 79.9387 26.402 79.7422 26.821C79.5481 27.2377 79.2829 27.5537 78.9468 27.7692C78.613 27.9822 78.2389 28.0888 77.8246 28.0888C77.531 28.0888 77.2813 28.0402 77.0753 27.9432C76.8717 27.8461 76.7048 27.7242 76.5746 27.5774C76.4444 27.4283 76.345 27.2779 76.2763 27.1264H76.2301V30.0455H74.7174ZM76.1982 25.2727C76.1982 25.5971 76.2432 25.88 76.3331 26.1214C76.4231 26.3629 76.5533 26.5511 76.7238 26.6861C76.8942 26.8187 77.1014 26.8849 77.3452 26.8849C77.5914 26.8849 77.7998 26.8175 77.9702 26.6825C78.1407 26.5452 78.2697 26.3558 78.3573 26.1143C78.4472 25.8705 78.4922 25.59 78.4922 25.2727C78.4922 24.9579 78.4484 24.6809 78.3608 24.4418C78.2732 24.2027 78.1442 24.0156 77.9738 23.8807C77.8033 23.7457 77.5938 23.6783 77.3452 23.6783C77.099 23.6783 76.8907 23.7434 76.7202 23.8736C76.5521 24.0038 76.4231 24.1884 76.3331 24.4276C76.2432 24.6667 76.1982 24.9484 76.1982 25.2727ZM82.9583 20.7273V28H81.4455V20.7273H82.9583ZM87.0559 28.1065C86.4948 28.1065 86.0119 27.9929 85.607 27.7656C85.2046 27.536 84.8944 27.2116 84.6766 26.7926C84.4588 26.3712 84.3499 25.8729 84.3499 25.2976C84.3499 24.7365 84.4588 24.2441 84.6766 23.8203C84.8944 23.3965 85.201 23.0663 85.5964 22.8295C85.9941 22.5928 86.4605 22.4744 86.9955 22.4744C87.3554 22.4744 87.6904 22.5324 88.0005 22.6484C88.313 22.7621 88.5853 22.9337 88.8173 23.1634C89.0516 23.393 89.2339 23.6818 89.3641 24.0298C89.4943 24.3755 89.5594 24.7803 89.5594 25.2443V25.6598H84.9536V24.7223H88.1354C88.1354 24.5045 88.0881 24.3116 87.9934 24.1435C87.8987 23.9754 87.7673 23.844 87.5992 23.7493C87.4335 23.6522 87.2406 23.6037 87.0204 23.6037C86.7907 23.6037 86.5871 23.657 86.4096 23.7635C86.2344 23.8677 86.0971 24.0085 85.9977 24.1861C85.8982 24.3613 85.8473 24.5566 85.845 24.772V25.6634C85.845 25.9332 85.8947 26.1664 85.9941 26.3629C86.0959 26.5594 86.2391 26.7109 86.4238 26.8175C86.6085 26.924 86.8274 26.9773 87.0808 26.9773C87.2488 26.9773 87.4027 26.9536 87.5424 26.9062C87.6821 26.8589 87.8016 26.7879 87.9011 26.6932C88.0005 26.5985 88.0763 26.4825 88.1283 26.3452L89.5275 26.4375C89.4565 26.7737 89.3109 27.0672 89.0907 27.3182C88.8729 27.5668 88.5912 27.7609 88.2455 27.9006C87.9023 28.0379 87.5057 28.1065 87.0559 28.1065ZM95.7087 30.0952C94.9535 30.0952 94.2812 29.9922 93.6917 29.7862C93.1022 29.5826 92.6039 29.2831 92.1967 28.8878C91.7895 28.4948 91.4793 28.0142 91.2663 27.446C91.0532 26.8778 90.9467 26.2315 90.9467 25.5071C90.9467 24.7921 91.0532 24.1435 91.2663 23.5611C91.4817 22.9787 91.7954 22.4792 92.2073 22.0625C92.6192 21.6435 93.1223 21.3215 93.7165 21.0966C94.3131 20.8717 94.9926 20.7592 95.7549 20.7592C96.4604 20.7592 97.0901 20.8622 97.6441 21.0682C98.2004 21.2741 98.6716 21.5677 99.0575 21.9489C99.4457 22.3277 99.7405 22.7786 99.9417 23.3018C100.145 23.8227 100.246 24.3991 100.244 25.0312C100.246 25.4669 100.208 25.867 100.13 26.2315C100.052 26.5961 99.9287 26.9145 99.7606 27.1868C99.5949 27.4567 99.3771 27.6709 99.1072 27.8295C98.8373 27.9858 98.5106 28.0746 98.1271 28.0959C97.8524 28.1172 97.6299 28.0971 97.4594 28.0355C97.289 27.974 97.1588 27.8828 97.0688 27.7621C96.9812 27.639 96.9244 27.4957 96.8984 27.3324H96.8558C96.7989 27.4744 96.6877 27.6035 96.5219 27.7195C96.3562 27.8331 96.1538 27.9219 95.9147 27.9858C95.678 28.0473 95.4258 28.0698 95.1583 28.0533C94.879 28.0367 94.6138 27.9716 94.3629 27.858C94.1143 27.7443 93.8929 27.5798 93.6988 27.3643C93.507 27.1489 93.3555 26.8826 93.2442 26.5653C93.1353 26.2481 93.0797 25.8812 93.0773 25.4645C93.0797 25.0526 93.1377 24.6939 93.2513 24.3885C93.3674 24.0831 93.5201 23.8262 93.7094 23.6179C93.9012 23.4096 94.1143 23.2462 94.3486 23.1278C94.583 23.0095 94.8186 22.9337 95.0553 22.9006C95.3228 22.8603 95.5762 22.8603 95.8153 22.9006C96.0544 22.9408 96.2556 23.0059 96.419 23.0959C96.5847 23.1858 96.6877 23.2829 96.7279 23.3871H96.7776V22.9893H97.8891V26.4553C97.8915 26.6186 97.9282 26.7453 97.9992 26.8352C98.0702 26.9252 98.1661 26.9702 98.2869 26.9702C98.4502 26.9702 98.5863 26.898 98.6952 26.7536C98.8065 26.6091 98.8894 26.3878 98.9438 26.0895C99.0006 25.7912 99.029 25.4112 99.029 24.9496C99.029 24.5045 98.9699 24.1139 98.8515 23.7777C98.7355 23.4392 98.5721 23.1515 98.3614 22.9148C98.1531 22.6757 97.9104 22.4815 97.6335 22.3324C97.3565 22.1832 97.0558 22.0743 96.7315 22.0057C96.4095 21.937 96.0781 21.9027 95.7371 21.9027C95.1477 21.9027 94.6327 21.9927 94.1924 22.1726C93.7521 22.3501 93.3851 22.5999 93.0915 22.9219C92.798 23.2438 92.5778 23.6214 92.431 24.0547C92.2866 24.4856 92.2132 24.9555 92.2109 25.4645C92.2132 26.0256 92.2914 26.5227 92.4452 26.956C92.6015 27.3868 92.8311 27.7491 93.1342 28.0426C93.4372 28.3362 93.8112 28.5587 94.2563 28.7102C94.7014 28.8617 95.2128 28.9375 95.7904 28.9375C96.0627 28.9375 96.329 28.9174 96.5894 28.8771C96.8498 28.8393 97.0854 28.7919 97.2961 28.7351C97.5068 28.6806 97.6761 28.6274 97.8039 28.5753L98.1555 29.6051C98.0063 29.6903 97.8039 29.7696 97.5482 29.843C97.2949 29.9188 97.0085 29.9792 96.6888 30.0241C96.3716 30.0715 96.0449 30.0952 95.7087 30.0952ZM95.5454 26.8849C95.8342 26.8849 96.0638 26.8293 96.2343 26.718C96.4071 26.6068 96.5302 26.4422 96.6036 26.2244C96.6794 26.0043 96.7149 25.7332 96.7102 25.4112C96.7078 25.1271 96.6711 24.8868 96.6001 24.6903C96.5314 24.4915 96.4119 24.3411 96.2414 24.2393C96.0733 24.1352 95.8389 24.0831 95.5383 24.0831C95.2755 24.0831 95.0518 24.1387 94.8671 24.25C94.6848 24.3613 94.5451 24.5175 94.4481 24.7188C94.3534 24.9176 94.3049 25.152 94.3025 25.4219C94.3049 25.6728 94.3451 25.9107 94.4232 26.1357C94.5013 26.3582 94.6304 26.5393 94.8103 26.679C94.9902 26.8163 95.2353 26.8849 95.5454 26.8849ZM104.107 30.1591C103.617 30.1591 103.197 30.0916 102.846 29.9567C102.498 29.8241 102.221 29.643 102.015 29.4134C101.809 29.1837 101.675 28.9257 101.614 28.6392L103.013 28.451C103.056 28.5599 103.123 28.6617 103.215 28.7564C103.308 28.8511 103.43 28.9268 103.581 28.9837C103.735 29.0429 103.922 29.0724 104.142 29.0724C104.471 29.0724 104.742 28.992 104.956 28.831C105.171 28.6723 105.279 28.406 105.279 28.032V27.0341H105.215C105.148 27.1856 105.049 27.3288 104.916 27.4638C104.784 27.5987 104.613 27.7088 104.405 27.794C104.197 27.8793 103.948 27.9219 103.659 27.9219C103.25 27.9219 102.877 27.8272 102.541 27.6378C102.207 27.446 101.941 27.1536 101.742 26.7607C101.545 26.3653 101.447 25.8658 101.447 25.2621C101.447 24.6442 101.548 24.1281 101.749 23.7138C101.95 23.2995 102.218 22.9893 102.551 22.7834C102.888 22.5774 103.256 22.4744 103.656 22.4744C103.961 22.4744 104.217 22.5265 104.423 22.6307C104.629 22.7325 104.795 22.8603 104.92 23.0142C105.048 23.1657 105.146 23.3149 105.215 23.4616H105.272V22.5455H106.774V28.0533C106.774 28.5173 106.66 28.9055 106.433 29.218C106.206 29.5305 105.891 29.7649 105.488 29.9212C105.088 30.0798 104.628 30.1591 104.107 30.1591ZM104.139 26.7855C104.383 26.7855 104.589 26.7251 104.757 26.6044C104.927 26.4813 105.057 26.3061 105.147 26.0788C105.24 25.8492 105.286 25.5746 105.286 25.255C105.286 24.9354 105.241 24.6584 105.151 24.424C105.061 24.1873 104.931 24.0038 104.76 23.8736C104.59 23.7434 104.383 23.6783 104.139 23.6783C103.89 23.6783 103.681 23.7457 103.51 23.8807C103.34 24.0133 103.211 24.1979 103.123 24.4347C103.036 24.6714 102.992 24.9448 102.992 25.255C102.992 25.5698 103.036 25.8421 103.123 26.0717C103.213 26.299 103.342 26.4754 103.51 26.6009C103.681 26.724 103.89 26.7855 104.139 26.7855ZM108.378 28V22.5455H109.819V23.5078H109.883C109.997 23.1882 110.186 22.9361 110.451 22.7514C110.717 22.5668 111.034 22.4744 111.403 22.4744C111.777 22.4744 112.096 22.5679 112.358 22.755C112.621 22.9396 112.796 23.1906 112.884 23.5078H112.941C113.052 23.1953 113.253 22.9455 113.544 22.7585C113.838 22.5691 114.185 22.4744 114.585 22.4744C115.094 22.4744 115.507 22.6366 115.824 22.9609C116.144 23.2829 116.304 23.7398 116.304 24.3317V28H114.794V24.63C114.794 24.3269 114.714 24.0997 114.553 23.9482C114.392 23.7966 114.191 23.7209 113.949 23.7209C113.675 23.7209 113.46 23.8085 113.306 23.9837C113.153 24.1565 113.076 24.3849 113.076 24.669V28H111.609V24.598C111.609 24.3305 111.532 24.1174 111.378 23.9588C111.227 23.8002 111.027 23.7209 110.778 23.7209C110.61 23.7209 110.458 23.7635 110.324 23.8487C110.191 23.9316 110.086 24.0488 110.007 24.2003C109.929 24.3494 109.89 24.5246 109.89 24.7259V28H108.378ZM119.454 28.103C119.106 28.103 118.796 28.0426 118.524 27.9219C118.251 27.7988 118.036 27.6177 117.877 27.3786C117.721 27.1371 117.643 26.8364 117.643 26.4766C117.643 26.1735 117.699 25.919 117.81 25.7131C117.921 25.5071 118.073 25.3414 118.264 25.2159C118.456 25.0904 118.674 24.9957 118.918 24.9318C119.164 24.8679 119.422 24.8229 119.692 24.7969C120.009 24.7637 120.265 24.733 120.459 24.7045C120.653 24.6738 120.794 24.6288 120.882 24.5696C120.969 24.5104 121.013 24.4228 121.013 24.3068V24.2855C121.013 24.0606 120.942 23.8866 120.8 23.7635C120.66 23.6404 120.461 23.5788 120.203 23.5788C119.931 23.5788 119.714 23.6392 119.553 23.7599C119.392 23.8783 119.286 24.0275 119.234 24.2074L117.835 24.0938C117.906 23.7623 118.045 23.4759 118.254 23.2344C118.462 22.9905 118.731 22.8035 119.06 22.6733C119.391 22.5407 119.775 22.4744 120.21 22.4744C120.513 22.4744 120.803 22.5099 121.08 22.581C121.36 22.652 121.607 22.7621 121.823 22.9112C122.04 23.0604 122.212 23.2521 122.338 23.4865C122.463 23.7185 122.526 23.9967 122.526 24.321V28H121.091V27.2436H121.048C120.961 27.4141 120.844 27.5644 120.697 27.6946C120.55 27.8224 120.374 27.9231 120.168 27.9964C119.962 28.0675 119.724 28.103 119.454 28.103ZM119.887 27.0589C120.11 27.0589 120.306 27.0152 120.477 26.9276C120.647 26.8376 120.781 26.7169 120.878 26.5653C120.975 26.4138 121.024 26.2422 121.024 26.0504V25.4716C120.976 25.5024 120.911 25.5308 120.828 25.5568C120.748 25.5805 120.657 25.603 120.555 25.6243C120.453 25.6432 120.351 25.661 120.249 25.6776C120.148 25.6918 120.055 25.7048 119.972 25.7166C119.795 25.7427 119.64 25.7841 119.507 25.8409C119.375 25.8977 119.272 25.9747 119.198 26.0717C119.125 26.1664 119.088 26.2848 119.088 26.4268C119.088 26.6328 119.163 26.7902 119.312 26.8991C119.463 27.0057 119.655 27.0589 119.887 27.0589ZM124.099 28V22.5455H125.612V28H124.099ZM124.859 21.8423C124.634 21.8423 124.441 21.7678 124.281 21.6186C124.122 21.4671 124.043 21.286 124.043 21.0753C124.043 20.867 124.122 20.6882 124.281 20.5391C124.441 20.3875 124.634 20.3118 124.859 20.3118C125.084 20.3118 125.276 20.3875 125.435 20.5391C125.596 20.6882 125.676 20.867 125.676 21.0753C125.676 21.286 125.596 21.4671 125.435 21.6186C125.276 21.7678 125.084 21.8423 124.859 21.8423ZM128.737 20.7273V28H127.224V20.7273H128.737ZM131.233 28.0923C130.998 28.0923 130.797 28.0095 130.629 27.8438C130.463 27.6757 130.381 27.4744 130.381 27.2401C130.381 27.008 130.463 26.8092 130.629 26.6435C130.797 26.4777 130.998 26.3949 131.233 26.3949C131.46 26.3949 131.659 26.4777 131.829 26.6435C132 26.8092 132.085 27.008 132.085 27.2401C132.085 27.3963 132.045 27.5395 131.964 27.6697C131.886 27.7976 131.783 27.9006 131.655 27.9787C131.528 28.0545 131.387 28.0923 131.233 28.0923ZM136.192 28.1065C135.633 28.1065 135.152 27.9882 134.75 27.7514C134.35 27.5123 134.042 27.1809 133.827 26.7571C133.613 26.3333 133.507 25.8456 133.507 25.294C133.507 24.7353 133.615 24.2453 133.83 23.8239C134.048 23.4001 134.357 23.0698 134.757 22.8331C135.157 22.594 135.633 22.4744 136.185 22.4744C136.66 22.4744 137.077 22.5608 137.435 22.7337C137.792 22.9065 138.075 23.1491 138.283 23.4616C138.492 23.7741 138.606 24.1411 138.628 24.5625H137.2C137.16 24.2902 137.053 24.0713 136.881 23.9055C136.71 23.7375 136.486 23.6534 136.209 23.6534C135.975 23.6534 135.77 23.7173 135.595 23.8452C135.422 23.9706 135.287 24.1541 135.19 24.3956C135.093 24.6371 135.045 24.9295 135.045 25.2727C135.045 25.6207 135.092 25.9167 135.187 26.1605C135.284 26.4044 135.42 26.5902 135.595 26.718C135.77 26.8459 135.975 26.9098 136.209 26.9098C136.382 26.9098 136.537 26.8743 136.675 26.8033C136.814 26.7322 136.929 26.6293 137.019 26.4943C137.111 26.357 137.172 26.1925 137.2 26.0007H138.628C138.604 26.4174 138.49 26.7843 138.287 27.1016C138.086 27.4164 137.807 27.6626 137.452 27.8402C137.097 28.0178 136.677 28.1065 136.192 28.1065ZM142.461 28.1065C141.909 28.1065 141.432 27.9893 141.03 27.755C140.63 27.5182 140.321 27.1892 140.103 26.7678C139.885 26.344 139.776 25.8527 139.776 25.294C139.776 24.7306 139.885 24.2382 140.103 23.8168C140.321 23.393 140.63 23.0639 141.03 22.8295C141.432 22.5928 141.909 22.4744 142.461 22.4744C143.012 22.4744 143.488 22.5928 143.888 22.8295C144.291 23.0639 144.601 23.393 144.819 23.8168C145.037 24.2382 145.145 24.7306 145.145 25.294C145.145 25.8527 145.037 26.344 144.819 26.7678C144.601 27.1892 144.291 27.5182 143.888 27.755C143.488 27.9893 143.012 28.1065 142.461 28.1065ZM142.468 26.9347C142.719 26.9347 142.928 26.8636 143.096 26.7216C143.265 26.5772 143.391 26.3807 143.476 26.1321C143.564 25.8835 143.608 25.6006 143.608 25.2834C143.608 24.9661 143.564 24.6832 143.476 24.4347C143.391 24.1861 143.265 23.9896 143.096 23.8452C142.928 23.7008 142.719 23.6286 142.468 23.6286C142.215 23.6286 142.001 23.7008 141.829 23.8452C141.658 23.9896 141.529 24.1861 141.442 24.4347C141.356 24.6832 141.314 24.9661 141.314 25.2834C141.314 25.6006 141.356 25.8835 141.442 26.1321C141.529 26.3807 141.658 26.5772 141.829 26.7216C142.001 26.8636 142.215 26.9347 142.468 26.9347ZM146.529 28V22.5455H147.971V23.5078H148.035C148.148 23.1882 148.338 22.9361 148.603 22.7514C148.868 22.5668 149.185 22.4744 149.555 22.4744C149.929 22.4744 150.247 22.5679 150.51 22.755C150.773 22.9396 150.948 23.1906 151.035 23.5078H151.092C151.204 23.1953 151.405 22.9455 151.696 22.7585C151.99 22.5691 152.336 22.4744 152.736 22.4744C153.245 22.4744 153.659 22.6366 153.976 22.9609C154.295 23.2829 154.455 23.7398 154.455 24.3317V28H152.946V24.63C152.946 24.3269 152.865 24.0997 152.705 23.9482C152.544 23.7966 152.342 23.7209 152.101 23.7209C151.826 23.7209 151.612 23.8085 151.458 23.9837C151.304 24.1565 151.227 24.3849 151.227 24.669V28H149.761V24.598C149.761 24.3305 149.684 24.1174 149.53 23.9588C149.378 23.8002 149.178 23.7209 148.93 23.7209C148.762 23.7209 148.61 23.7635 148.475 23.8487C148.343 23.9316 148.237 24.0488 148.159 24.2003C148.081 24.3494 148.042 24.5246 148.042 24.7259V28H146.529Z" fill="white"/>
</g>
<g filter="url(#filter1_d_72_7687)">
<path d="M182.443 20.6278C182.817 20.6278 183.176 20.6906 183.522 20.8161C183.87 20.9415 184.18 21.1416 184.453 21.4162C184.727 21.6908 184.944 22.0554 185.102 22.5099C185.263 22.9621 185.345 23.5173 185.347 24.1754C185.347 24.7933 185.278 25.3449 185.138 25.8303C185.001 26.3132 184.803 26.724 184.545 27.0625C184.287 27.401 183.975 27.6591 183.611 27.8366C183.246 28.0118 182.839 28.0994 182.389 28.0994C181.904 28.0994 181.475 28.0059 181.104 27.8189C180.732 27.6295 180.433 27.3726 180.205 27.0483C179.98 26.7216 179.844 26.3546 179.797 25.9474H181.313C181.372 26.2126 181.497 26.4186 181.686 26.5653C181.876 26.7098 182.11 26.782 182.389 26.782C182.863 26.782 183.223 26.576 183.469 26.1641C183.715 25.7498 183.839 25.1828 183.842 24.4631H183.792C183.683 24.6761 183.536 24.8596 183.352 25.0135C183.167 25.165 182.955 25.2822 182.716 25.3651C182.479 25.4479 182.227 25.4893 181.96 25.4893C181.531 25.4893 181.149 25.3887 180.813 25.1875C180.476 24.9863 180.211 24.7093 180.017 24.3565C179.823 24.0038 179.726 23.6013 179.726 23.1491C179.724 22.6615 179.836 22.227 180.063 21.8459C180.291 21.4647 180.608 21.1664 181.015 20.951C181.425 20.7332 181.9 20.6255 182.443 20.6278ZM182.453 21.8352C182.214 21.8352 182.001 21.892 181.814 22.0057C181.629 22.1193 181.483 22.272 181.374 22.4638C181.267 22.6555 181.215 22.8698 181.217 23.1065C181.217 23.3456 181.27 23.5611 181.374 23.7528C181.48 23.9422 181.625 24.0937 181.807 24.2074C181.992 24.3187 182.202 24.3743 182.439 24.3743C182.617 24.3743 182.781 24.3411 182.933 24.2749C183.084 24.2086 183.216 24.1174 183.327 24.0014C183.44 23.883 183.529 23.7469 183.593 23.593C183.657 23.4392 183.689 23.2758 183.689 23.103C183.687 22.8733 183.632 22.6626 183.526 22.4709C183.419 22.2791 183.272 22.1252 183.085 22.0092C182.898 21.8932 182.688 21.8352 182.453 21.8352ZM189.444 20.6278C189.818 20.6278 190.178 20.6906 190.524 20.8161C190.872 20.9415 191.182 21.1416 191.454 21.4162C191.729 21.6908 191.945 22.0554 192.104 22.5099C192.265 22.9621 192.347 23.5173 192.349 24.1754C192.349 24.7933 192.279 25.3449 192.139 25.8303C192.002 26.3132 191.804 26.724 191.546 27.0625C191.288 27.401 190.977 27.6591 190.612 27.8366C190.248 28.0118 189.841 28.0994 189.391 28.0994C188.906 28.0994 188.477 28.0059 188.105 27.8189C187.734 27.6295 187.434 27.3726 187.207 27.0483C186.982 26.7216 186.846 26.3546 186.799 25.9474H188.315C188.374 26.2126 188.498 26.4186 188.688 26.5653C188.877 26.7098 189.111 26.782 189.391 26.782C189.864 26.782 190.224 26.576 190.47 26.1641C190.717 25.7498 190.841 25.1828 190.843 24.4631H190.794C190.685 24.6761 190.538 24.8596 190.353 25.0135C190.169 25.165 189.957 25.2822 189.718 25.3651C189.481 25.4479 189.229 25.4893 188.961 25.4893C188.533 25.4893 188.15 25.3887 187.814 25.1875C187.478 24.9863 187.213 24.7093 187.019 24.3565C186.825 24.0038 186.728 23.6013 186.728 23.1491C186.725 22.6615 186.838 22.227 187.065 21.8459C187.292 21.4647 187.609 21.1664 188.017 20.951C188.426 20.7332 188.902 20.6255 189.444 20.6278ZM189.455 21.8352C189.216 21.8352 189.003 21.892 188.816 22.0057C188.631 22.1193 188.484 22.272 188.375 22.4638C188.269 22.6555 188.217 22.8698 188.219 23.1065C188.219 23.3456 188.271 23.5611 188.375 23.7528C188.482 23.9422 188.626 24.0937 188.808 24.2074C188.993 24.3187 189.204 24.3743 189.441 24.3743C189.618 24.3743 189.783 24.3411 189.934 24.2749C190.086 24.2086 190.217 24.1174 190.328 24.0014C190.442 23.883 190.531 23.7469 190.595 23.593C190.659 23.4392 190.691 23.2758 190.691 23.103C190.688 22.8733 190.634 22.6626 190.527 22.4709C190.421 22.2791 190.274 22.1252 190.087 22.0092C189.9 21.8932 189.689 21.8352 189.455 21.8352ZM194.42 28.0923C194.185 28.0923 193.984 28.0095 193.816 27.8438C193.65 27.6757 193.567 27.4744 193.567 27.2401C193.567 27.008 193.65 26.8092 193.816 26.6435C193.984 26.4777 194.185 26.3949 194.42 26.3949C194.647 26.3949 194.846 26.4777 195.016 26.6435C195.187 26.8092 195.272 27.008 195.272 27.2401C195.272 27.3963 195.232 27.5395 195.151 27.6697C195.073 27.7976 194.97 27.9006 194.842 27.9787C194.715 28.0545 194.574 28.0923 194.42 28.0923ZM199.395 20.6278C199.769 20.6278 200.128 20.6906 200.474 20.8161C200.822 20.9415 201.132 21.1416 201.404 21.4162C201.679 21.6908 201.896 22.0554 202.054 22.5099C202.215 22.9621 202.297 23.5173 202.299 24.1754C202.299 24.7933 202.23 25.3449 202.09 25.8303C201.953 26.3132 201.755 26.724 201.497 27.0625C201.239 27.401 200.927 27.6591 200.563 27.8366C200.198 28.0118 199.791 28.0994 199.341 28.0994C198.856 28.0994 198.427 28.0059 198.056 27.8189C197.684 27.6295 197.385 27.3726 197.157 27.0483C196.932 26.7216 196.796 26.3546 196.749 25.9474H198.265C198.324 26.2126 198.449 26.4186 198.638 26.5653C198.828 26.7098 199.062 26.782 199.341 26.782C199.815 26.782 200.175 26.576 200.421 26.1641C200.667 25.7498 200.791 25.1828 200.794 24.4631H200.744C200.635 24.6761 200.488 24.8596 200.304 25.0135C200.119 25.165 199.907 25.2822 199.668 25.3651C199.431 25.4479 199.179 25.4893 198.912 25.4893C198.483 25.4893 198.101 25.3887 197.765 25.1875C197.428 24.9863 197.163 24.7093 196.969 24.3565C196.775 24.0038 196.678 23.6013 196.678 23.1491C196.676 22.6615 196.788 22.227 197.015 21.8459C197.243 21.4647 197.56 21.1664 197.967 20.951C198.377 20.7332 198.852 20.6255 199.395 20.6278ZM199.405 21.8352C199.166 21.8352 198.953 21.892 198.766 22.0057C198.581 22.1193 198.435 22.272 198.326 22.4638C198.219 22.6555 198.167 22.8698 198.169 23.1065C198.169 23.3456 198.221 23.5611 198.326 23.7528C198.432 23.9422 198.577 24.0937 198.759 24.2074C198.944 24.3187 199.154 24.3743 199.391 24.3743C199.569 24.3743 199.733 24.3411 199.885 24.2749C200.036 24.2086 200.167 24.1174 200.279 24.0014C200.392 23.883 200.481 23.7469 200.545 23.593C200.609 23.4392 200.641 23.2758 200.641 23.103C200.639 22.8733 200.584 22.6626 200.478 22.4709C200.371 22.2791 200.224 22.1252 200.037 22.0092C199.85 21.8932 199.64 21.8352 199.405 21.8352ZM206.396 20.6278C206.77 20.6278 207.13 20.6906 207.476 20.8161C207.824 20.9415 208.134 21.1416 208.406 21.4162C208.681 21.6908 208.897 22.0554 209.056 22.5099C209.217 22.9621 209.299 23.5173 209.301 24.1754C209.301 24.7933 209.231 25.3449 209.091 25.8303C208.954 26.3132 208.756 26.724 208.498 27.0625C208.24 27.401 207.929 27.6591 207.564 27.8366C207.2 28.0118 206.793 28.0994 206.343 28.0994C205.857 28.0994 205.429 28.0059 205.057 27.8189C204.686 27.6295 204.386 27.3726 204.159 27.0483C203.934 26.7216 203.798 26.3546 203.75 25.9474H205.267C205.326 26.2126 205.45 26.4186 205.64 26.5653C205.829 26.7098 206.063 26.782 206.343 26.782C206.816 26.782 207.176 26.576 207.422 26.1641C207.669 25.7498 207.793 25.1828 207.795 24.4631H207.746C207.637 24.6761 207.49 24.8596 207.305 25.0135C207.121 25.165 206.909 25.2822 206.67 25.3651C206.433 25.4479 206.181 25.4893 205.913 25.4893C205.485 25.4893 205.102 25.3887 204.766 25.1875C204.43 24.9863 204.165 24.7093 203.971 24.3565C203.777 24.0038 203.679 23.6013 203.679 23.1491C203.677 22.6615 203.79 22.227 204.017 21.8459C204.244 21.4647 204.561 21.1664 204.969 20.951C205.378 20.7332 205.854 20.6255 206.396 20.6278ZM206.407 21.8352C206.168 21.8352 205.955 21.892 205.768 22.0057C205.583 22.1193 205.436 22.272 205.327 22.4638C205.221 22.6555 205.169 22.8698 205.171 23.1065C205.171 23.3456 205.223 23.5611 205.327 23.7528C205.434 23.9422 205.578 24.0937 205.76 24.2074C205.945 24.3187 206.156 24.3743 206.393 24.3743C206.57 24.3743 206.735 24.3411 206.886 24.2749C207.038 24.2086 207.169 24.1174 207.28 24.0014C207.394 23.883 207.483 23.7469 207.547 23.593C207.611 23.4392 207.643 23.2758 207.643 23.103C207.64 22.8733 207.586 22.6626 207.479 22.4709C207.373 22.2791 207.226 22.1252 207.039 22.0092C206.852 21.8932 206.641 21.8352 206.407 21.8352ZM213.398 20.6278C213.772 20.6278 214.132 20.6906 214.477 20.8161C214.825 20.9415 215.135 21.1416 215.408 21.4162C215.682 21.6908 215.899 22.0554 216.057 22.5099C216.218 22.9621 216.3 23.5173 216.302 24.1754C216.302 24.7933 216.233 25.3449 216.093 25.8303C215.956 26.3132 215.758 26.724 215.5 27.0625C215.242 27.401 214.931 27.6591 214.566 27.8366C214.201 28.0118 213.794 28.0994 213.344 28.0994C212.859 28.0994 212.431 28.0059 212.059 27.8189C211.687 27.6295 211.388 27.3726 211.16 27.0483C210.936 26.7216 210.799 26.3546 210.752 25.9474H212.268C212.328 26.2126 212.452 26.4186 212.641 26.5653C212.831 26.7098 213.065 26.782 213.344 26.782C213.818 26.782 214.178 26.576 214.424 26.1641C214.67 25.7498 214.794 25.1828 214.797 24.4631H214.747C214.638 24.6761 214.491 24.8596 214.307 25.0135C214.122 25.165 213.91 25.2822 213.671 25.3651C213.434 25.4479 213.182 25.4893 212.915 25.4893C212.486 25.4893 212.104 25.3887 211.768 25.1875C211.431 24.9863 211.166 24.7093 210.972 24.3565C210.778 24.0038 210.681 23.6013 210.681 23.1491C210.679 22.6615 210.791 22.227 211.018 21.8459C211.246 21.4647 211.563 21.1664 211.97 20.951C212.38 20.7332 212.855 20.6255 213.398 20.6278ZM213.408 21.8352C213.169 21.8352 212.956 21.892 212.769 22.0057C212.584 22.1193 212.438 22.272 212.329 22.4638C212.222 22.6555 212.17 22.8698 212.172 23.1065C212.172 23.3456 212.225 23.5611 212.329 23.7528C212.435 23.9422 212.58 24.0937 212.762 24.2074C212.947 24.3187 213.157 24.3743 213.394 24.3743C213.572 24.3743 213.736 24.3411 213.888 24.2749C214.039 24.2086 214.171 24.1174 214.282 24.0014C214.396 23.883 214.484 23.7469 214.548 23.593C214.612 23.4392 214.644 23.2758 214.644 23.103C214.642 22.8733 214.587 22.6626 214.481 22.4709C214.374 22.2791 214.227 22.1252 214.04 22.0092C213.853 21.8932 213.643 21.8352 213.408 21.8352Z" fill="white"/>
</g>
<g filter="url(#filter2_d_72_7687)">
<path d="M251.936 14.7273V22H250.608L247.444 17.4226H247.39V22H245.853V14.7273H247.202L250.341 19.3011H250.405V14.7273H251.936ZM256.042 22.1065C255.491 22.1065 255.014 21.9893 254.611 21.755C254.211 21.5182 253.902 21.1892 253.684 20.7678C253.467 20.344 253.358 19.8527 253.358 19.294C253.358 18.7306 253.467 18.2382 253.684 17.8168C253.902 17.393 254.211 17.0639 254.611 16.8295C255.014 16.5928 255.491 16.4744 256.042 16.4744C256.594 16.4744 257.07 16.5928 257.47 16.8295C257.872 17.0639 258.183 17.393 258.4 17.8168C258.618 18.2382 258.727 18.7306 258.727 19.294C258.727 19.8527 258.618 20.344 258.4 20.7678C258.183 21.1892 257.872 21.5182 257.47 21.755C257.07 21.9893 256.594 22.1065 256.042 22.1065ZM256.05 20.9347C256.3 20.9347 256.51 20.8636 256.678 20.7216C256.846 20.5772 256.973 20.3807 257.058 20.1321C257.146 19.8835 257.189 19.6006 257.189 19.2834C257.189 18.9661 257.146 18.6832 257.058 18.4347C256.973 18.1861 256.846 17.9896 256.678 17.8452C256.51 17.7008 256.3 17.6286 256.05 17.6286C255.796 17.6286 255.583 17.7008 255.41 17.8452C255.24 17.9896 255.111 18.1861 255.023 18.4347C254.938 18.6832 254.895 18.9661 254.895 19.2834C254.895 19.6006 254.938 19.8835 255.023 20.1321C255.111 20.3807 255.24 20.5772 255.41 20.7216C255.583 20.8636 255.796 20.9347 256.05 20.9347ZM260.111 22V16.5455H261.552V17.5078H261.616C261.73 17.1882 261.919 16.9361 262.185 16.7514C262.45 16.5668 262.767 16.4744 263.136 16.4744C263.51 16.4744 263.829 16.5679 264.092 16.755C264.354 16.9396 264.53 17.1906 264.617 17.5078H264.674C264.785 17.1953 264.986 16.9455 265.278 16.7585C265.571 16.5691 265.918 16.4744 266.318 16.4744C266.827 16.4744 267.24 16.6366 267.557 16.9609C267.877 17.2829 268.037 17.7398 268.037 18.3317V22H266.528V18.63C266.528 18.3269 266.447 18.0997 266.286 17.9482C266.125 17.7966 265.924 17.7209 265.682 17.7209C265.408 17.7209 265.194 17.8085 265.04 17.9837C264.886 18.1565 264.809 18.3849 264.809 18.669V22H263.342V18.598C263.342 18.3305 263.265 18.1174 263.111 17.9588C262.96 17.8002 262.76 17.7209 262.511 17.7209C262.343 17.7209 262.192 17.7635 262.057 17.8487C261.924 17.9316 261.819 18.0488 261.741 18.2003C261.663 18.3494 261.624 18.5246 261.624 18.7259V22H260.111ZM271.187 22.103C270.839 22.103 270.529 22.0426 270.257 21.9219C269.985 21.7988 269.769 21.6177 269.611 21.3786C269.454 21.1371 269.376 20.8364 269.376 20.4766C269.376 20.1735 269.432 19.919 269.543 19.7131C269.654 19.5071 269.806 19.3414 269.998 19.2159C270.189 19.0904 270.407 18.9957 270.651 18.9318C270.897 18.8679 271.155 18.8229 271.425 18.7969C271.742 18.7637 271.998 18.733 272.192 18.7045C272.386 18.6738 272.527 18.6288 272.615 18.5696C272.702 18.5104 272.746 18.4228 272.746 18.3068V18.2855C272.746 18.0606 272.675 17.8866 272.533 17.7635C272.393 17.6404 272.195 17.5788 271.937 17.5788C271.664 17.5788 271.448 17.6392 271.287 17.7599C271.126 17.8783 271.019 18.0275 270.967 18.2074L269.568 18.0938C269.639 17.7623 269.779 17.4759 269.987 17.2344C270.195 16.9905 270.464 16.8035 270.793 16.6733C271.124 16.5407 271.508 16.4744 271.944 16.4744C272.247 16.4744 272.537 16.5099 272.814 16.581C273.093 16.652 273.34 16.7621 273.556 16.9112C273.774 17.0604 273.945 17.2521 274.071 17.4865C274.196 17.7185 274.259 17.9967 274.259 18.321V22H272.824V21.2436H272.782C272.694 21.4141 272.577 21.5644 272.43 21.6946C272.283 21.8224 272.107 21.9231 271.901 21.9964C271.695 22.0675 271.457 22.103 271.187 22.103ZM271.62 21.0589C271.843 21.0589 272.039 21.0152 272.21 20.9276C272.38 20.8376 272.514 20.7169 272.611 20.5653C272.708 20.4138 272.757 20.2422 272.757 20.0504V19.4716C272.709 19.5024 272.644 19.5308 272.562 19.5568C272.481 19.5805 272.39 19.603 272.288 19.6243C272.186 19.6432 272.084 19.661 271.983 19.6776C271.881 19.6918 271.789 19.7048 271.706 19.7166C271.528 19.7427 271.373 19.7841 271.24 19.8409C271.108 19.8977 271.005 19.9747 270.932 20.0717C270.858 20.1664 270.821 20.2848 270.821 20.4268C270.821 20.6328 270.896 20.7902 271.045 20.8991C271.197 21.0057 271.388 21.0589 271.62 21.0589ZM277.843 22.0888C277.428 22.0888 277.053 21.9822 276.717 21.7692C276.383 21.5537 276.118 21.2377 275.921 20.821C275.727 20.402 275.63 19.8883 275.63 19.2798C275.63 18.6548 275.731 18.1352 275.932 17.7209C276.133 17.3042 276.401 16.9929 276.735 16.7869C277.071 16.5786 277.439 16.4744 277.839 16.4744C278.144 16.4744 278.399 16.5265 278.602 16.6307C278.808 16.7325 278.974 16.8603 279.1 17.0142C279.227 17.1657 279.325 17.3149 279.391 17.4616H279.437V14.7273H280.946V22H279.455V21.1264H279.391C279.32 21.2779 279.219 21.4283 279.089 21.5774C278.961 21.7242 278.794 21.8461 278.588 21.9432C278.385 22.0402 278.136 22.0888 277.843 22.0888ZM278.322 20.8849C278.566 20.8849 278.772 20.8187 278.94 20.6861C279.11 20.5511 279.241 20.3629 279.33 20.1214C279.423 19.88 279.469 19.5971 279.469 19.2727C279.469 18.9484 279.424 18.6667 279.334 18.4276C279.244 18.1884 279.114 18.0038 278.943 17.8736C278.773 17.7434 278.566 17.6783 278.322 17.6783C278.073 17.6783 277.864 17.7457 277.693 17.8807C277.523 18.0156 277.394 18.2027 277.306 18.4418C277.219 18.6809 277.175 18.9579 277.175 19.2727C277.175 19.59 277.219 19.8705 277.306 20.1143C277.396 20.3558 277.525 20.5452 277.693 20.6825C277.864 20.8175 278.073 20.8849 278.322 20.8849ZM285.333 22V14.7273H286.871V17.9339H286.966L289.584 14.7273H291.427L288.728 17.9837L291.459 22H289.619L287.627 19.0099L286.871 19.9332V22H285.333ZM294.112 18.8466V22H292.599V16.5455H294.041V17.5078H294.105C294.225 17.1906 294.428 16.9396 294.712 16.755C294.996 16.5679 295.34 16.4744 295.745 16.4744C296.124 16.4744 296.454 16.5573 296.736 16.723C297.018 16.8887 297.237 17.1255 297.393 17.4332C297.549 17.7386 297.627 18.1032 297.627 18.527V22H296.115V18.7969C296.117 18.4631 296.032 18.2027 295.859 18.0156C295.686 17.8262 295.448 17.7315 295.145 17.7315C294.942 17.7315 294.762 17.7753 294.605 17.8629C294.452 17.9505 294.331 18.0784 294.243 18.2464C294.158 18.4122 294.114 18.6122 294.112 18.8466ZM299.22 22V16.5455H300.732V22H299.22ZM299.98 15.8423C299.755 15.8423 299.562 15.7678 299.401 15.6186C299.242 15.4671 299.163 15.286 299.163 15.0753C299.163 14.867 299.242 14.6882 299.401 14.5391C299.562 14.3875 299.755 14.3118 299.98 14.3118C300.205 14.3118 300.396 14.3875 300.555 14.5391C300.716 14.6882 300.796 14.867 300.796 15.0753C300.796 15.286 300.716 15.4671 300.555 15.6186C300.396 15.7678 300.205 15.8423 299.98 15.8423ZM305.278 16.5455V17.6818H301.911V16.5455H305.278ZM302.682 22V16.1513C302.682 15.7559 302.759 15.428 302.912 15.1676C303.069 14.9072 303.282 14.7119 303.552 14.5817C303.822 14.4515 304.128 14.3864 304.471 14.3864C304.703 14.3864 304.915 14.4041 305.107 14.4396C305.301 14.4751 305.446 14.5071 305.54 14.5355L305.27 15.6719C305.211 15.6529 305.138 15.6352 305.05 15.6186C304.965 15.602 304.877 15.5938 304.787 15.5938C304.565 15.5938 304.41 15.6458 304.322 15.75C304.235 15.8518 304.191 15.995 304.191 16.1797V22H302.682ZM308.892 22.1065C308.331 22.1065 307.848 21.9929 307.443 21.7656C307.041 21.536 306.731 21.2116 306.513 20.7926C306.295 20.3712 306.186 19.8729 306.186 19.2976C306.186 18.7365 306.295 18.2441 306.513 17.8203C306.731 17.3965 307.037 17.0663 307.433 16.8295C307.83 16.5928 308.297 16.4744 308.832 16.4744C309.192 16.4744 309.527 16.5324 309.837 16.6484C310.149 16.7621 310.422 16.9337 310.654 17.1634C310.888 17.393 311.07 17.6818 311.2 18.0298C311.331 18.3755 311.396 18.7803 311.396 19.2443V19.6598H306.79V18.7223H309.972C309.972 18.5045 309.924 18.3116 309.83 18.1435C309.735 17.9754 309.604 17.844 309.436 17.7493C309.27 17.6522 309.077 17.6037 308.857 17.6037C308.627 17.6037 308.423 17.657 308.246 17.7635C308.071 17.8677 307.933 18.0085 307.834 18.1861C307.735 18.3613 307.684 18.5566 307.681 18.772V19.6634C307.681 19.9332 307.731 20.1664 307.83 20.3629C307.932 20.5594 308.075 20.7109 308.26 20.8175C308.445 20.924 308.664 20.9773 308.917 20.9773C309.085 20.9773 309.239 20.9536 309.379 20.9062C309.518 20.8589 309.638 20.7879 309.737 20.6932C309.837 20.5985 309.913 20.4825 309.965 20.3452L311.364 20.4375C311.293 20.7737 311.147 21.0672 310.927 21.3182C310.709 21.5668 310.427 21.7609 310.082 21.9006C309.739 22.0379 309.342 22.1065 308.892 22.1065ZM248.598 26.995V25.7273H254.571V26.995H252.345V33H250.825V26.995H248.598ZM255.927 33V27.5455H257.439V33H255.927ZM256.686 26.8423C256.462 26.8423 256.269 26.7678 256.108 26.6186C255.949 26.4671 255.87 26.286 255.87 26.0753C255.87 25.867 255.949 25.6882 256.108 25.5391C256.269 25.3875 256.462 25.3118 256.686 25.3118C256.911 25.3118 257.103 25.3875 257.262 25.5391C257.423 25.6882 257.503 25.867 257.503 26.0753C257.503 26.286 257.423 26.4671 257.262 26.6186C257.103 26.7678 256.911 26.8423 256.686 26.8423ZM261.509 35.1591C261.018 35.1591 260.598 35.0916 260.248 34.9567C259.9 34.8241 259.623 34.643 259.417 34.4134C259.211 34.1837 259.077 33.9257 259.016 33.6392L260.415 33.451C260.457 33.5599 260.525 33.6617 260.617 33.7564C260.71 33.8511 260.831 33.9268 260.983 33.9837C261.137 34.0429 261.324 34.0724 261.544 34.0724C261.873 34.0724 262.144 33.992 262.357 33.831C262.573 33.6723 262.68 33.406 262.68 33.032V32.0341H262.616C262.55 32.1856 262.451 32.3288 262.318 32.4638C262.186 32.5987 262.015 32.7088 261.807 32.794C261.599 32.8793 261.35 32.9219 261.061 32.9219C260.652 32.9219 260.279 32.8272 259.942 32.6378C259.609 32.446 259.342 32.1536 259.143 31.7607C258.947 31.3653 258.849 30.8658 258.849 30.2621C258.849 29.6442 258.949 29.1281 259.151 28.7138C259.352 28.2995 259.619 27.9893 259.953 27.7834C260.289 27.5774 260.657 27.4744 261.058 27.4744C261.363 27.4744 261.619 27.5265 261.825 27.6307C262.031 27.7325 262.196 27.8603 262.322 28.0142C262.45 28.1657 262.548 28.3149 262.616 28.4616H262.673V27.5455H264.175V33.0533C264.175 33.5173 264.062 33.9055 263.835 34.218C263.607 34.5305 263.292 34.7649 262.89 34.9212C262.49 35.0798 262.029 35.1591 261.509 35.1591ZM261.541 31.7855C261.784 31.7855 261.99 31.7251 262.158 31.6044C262.329 31.4813 262.459 31.3061 262.549 31.0788C262.641 30.8492 262.688 30.5746 262.688 30.255C262.688 29.9354 262.643 29.6584 262.553 29.424C262.463 29.1873 262.332 29.0038 262.162 28.8736C261.991 28.7434 261.784 28.6783 261.541 28.6783C261.292 28.6783 261.082 28.7457 260.912 28.8807C260.741 29.0133 260.612 29.1979 260.525 29.4347C260.437 29.6714 260.393 29.9448 260.393 30.255C260.393 30.5698 260.437 30.8421 260.525 31.0717C260.615 31.299 260.744 31.4754 260.912 31.6009C261.082 31.724 261.292 31.7855 261.541 31.7855ZM268.265 33.1065C267.704 33.1065 267.221 32.9929 266.816 32.7656C266.414 32.536 266.104 32.2116 265.886 31.7926C265.668 31.3712 265.559 30.8729 265.559 30.2976C265.559 29.7365 265.668 29.2441 265.886 28.8203C266.104 28.3965 266.41 28.0663 266.806 27.8295C267.203 27.5928 267.67 27.4744 268.205 27.4744C268.565 27.4744 268.9 27.5324 269.21 27.6484C269.522 27.7621 269.794 27.9337 270.026 28.1634C270.261 28.393 270.443 28.6818 270.573 29.0298C270.704 29.3755 270.769 29.7803 270.769 30.2443V30.6598H266.163V29.7223H269.345C269.345 29.5045 269.297 29.3116 269.203 29.1435C269.108 28.9754 268.976 28.844 268.808 28.7493C268.643 28.6522 268.45 28.6037 268.23 28.6037C268 28.6037 267.796 28.657 267.619 28.7635C267.444 28.8677 267.306 29.0085 267.207 29.1861C267.107 29.3613 267.057 29.5566 267.054 29.772V30.6634C267.054 30.9332 267.104 31.1664 267.203 31.3629C267.305 31.5594 267.448 31.7109 267.633 31.8175C267.818 31.924 268.037 31.9773 268.29 31.9773C268.458 31.9773 268.612 31.9536 268.752 31.9062C268.891 31.8589 269.011 31.7879 269.11 31.6932C269.21 31.5985 269.285 31.4825 269.338 31.3452L270.737 31.4375C270.666 31.7737 270.52 32.0672 270.3 32.3182C270.082 32.5668 269.8 32.7609 269.455 32.9006C269.111 33.0379 268.715 33.1065 268.265 33.1065ZM272.156 33V27.5455H273.622V28.4972H273.679C273.779 28.1586 273.946 27.9029 274.18 27.7301C274.414 27.5549 274.684 27.4673 274.99 27.4673C275.065 27.4673 275.147 27.4721 275.235 27.4815C275.322 27.491 275.399 27.504 275.465 27.5206V28.8629C275.394 28.8416 275.296 28.8227 275.171 28.8061C275.045 28.7895 274.93 28.7812 274.826 28.7812C274.604 28.7812 274.405 28.8298 274.23 28.9268C274.057 29.0215 273.92 29.1541 273.818 29.3246C273.718 29.495 273.669 29.6915 273.669 29.9141V33H272.156ZM279.114 26.995V25.7273H285.087V26.995H282.86V33H281.34V26.995H279.114ZM288.115 33.1065C287.564 33.1065 287.087 32.9893 286.684 32.755C286.284 32.5182 285.975 32.1892 285.757 31.7678C285.539 31.344 285.431 30.8527 285.431 30.294C285.431 29.7306 285.539 29.2382 285.757 28.8168C285.975 28.393 286.284 28.0639 286.684 27.8295C287.087 27.5928 287.564 27.4744 288.115 27.4744C288.667 27.4744 289.143 27.5928 289.543 27.8295C289.945 28.0639 290.255 28.393 290.473 28.8168C290.691 29.2382 290.8 29.7306 290.8 30.294C290.8 30.8527 290.691 31.344 290.473 31.7678C290.255 32.1892 289.945 32.5182 289.543 32.755C289.143 32.9893 288.667 33.1065 288.115 33.1065ZM288.122 31.9347C288.373 31.9347 288.583 31.8636 288.751 31.7216C288.919 31.5772 289.046 31.3807 289.131 31.1321C289.218 30.8835 289.262 30.6006 289.262 30.2834C289.262 29.9661 289.218 29.6832 289.131 29.4347C289.046 29.1861 288.919 28.9896 288.751 28.8452C288.583 28.7008 288.373 28.6286 288.122 28.6286C287.869 28.6286 287.656 28.7008 287.483 28.8452C287.313 28.9896 287.184 29.1861 287.096 29.4347C287.011 29.6832 286.968 29.9661 286.968 30.2834C286.968 30.6006 287.011 30.8835 287.096 31.1321C287.184 31.3807 287.313 31.5772 287.483 31.7216C287.656 31.8636 287.869 31.9347 288.122 31.9347ZM294.648 33.1065C294.096 33.1065 293.619 32.9893 293.217 32.755C292.817 32.5182 292.508 32.1892 292.29 31.7678C292.072 31.344 291.963 30.8527 291.963 30.294C291.963 29.7306 292.072 29.2382 292.29 28.8168C292.508 28.393 292.817 28.0639 293.217 27.8295C293.619 27.5928 294.096 27.4744 294.648 27.4744C295.2 27.4744 295.676 27.5928 296.076 27.8295C296.478 28.0639 296.788 28.393 297.006 28.8168C297.224 29.2382 297.333 29.7306 297.333 30.294C297.333 30.8527 297.224 31.344 297.006 31.7678C296.788 32.1892 296.478 32.5182 296.076 32.755C295.676 32.9893 295.2 33.1065 294.648 33.1065ZM294.655 31.9347C294.906 31.9347 295.116 31.8636 295.284 31.7216C295.452 31.5772 295.578 31.3807 295.664 31.1321C295.751 30.8835 295.795 30.6006 295.795 30.2834C295.795 29.9661 295.751 29.6832 295.664 29.4347C295.578 29.1861 295.452 28.9896 295.284 28.8452C295.116 28.7008 294.906 28.6286 294.655 28.6286C294.402 28.6286 294.189 28.7008 294.016 28.8452C293.846 28.9896 293.716 29.1861 293.629 29.4347C293.544 29.6832 293.501 29.9661 293.501 30.2834C293.501 30.6006 293.544 30.8835 293.629 31.1321C293.716 31.3807 293.846 31.5772 294.016 31.7216C294.189 31.8636 294.402 31.9347 294.655 31.9347ZM301.618 27.5455V28.6818H298.333V27.5455H301.618ZM299.079 26.2386H300.591V31.3239C300.591 31.4635 300.613 31.5724 300.655 31.6506C300.698 31.7263 300.757 31.7796 300.833 31.8104C300.911 31.8411 301.001 31.8565 301.103 31.8565C301.174 31.8565 301.245 31.8506 301.316 31.8388C301.387 31.8246 301.441 31.8139 301.479 31.8068L301.717 32.9325C301.641 32.9562 301.535 32.9834 301.397 33.0142C301.26 33.0473 301.093 33.0675 300.897 33.0746C300.532 33.0888 300.213 33.0402 299.938 32.929C299.666 32.8177 299.454 32.6449 299.302 32.4105C299.151 32.1761 299.076 31.8802 299.079 31.5227V26.2386ZM304.633 29.8466V33H303.12V25.7273H304.59V28.5078H304.654C304.777 28.1858 304.976 27.9337 305.251 27.7514C305.526 27.5668 305.87 27.4744 306.284 27.4744C306.663 27.4744 306.993 27.5573 307.275 27.723C307.559 27.8864 307.779 28.1219 307.936 28.4297C308.094 28.7351 308.172 29.1009 308.17 29.527V33H306.657V29.7969C306.66 29.4607 306.574 29.1991 306.402 29.0121C306.231 28.825 305.992 28.7315 305.684 28.7315C305.478 28.7315 305.296 28.7753 305.137 28.8629C304.981 28.9505 304.858 29.0784 304.768 29.2464C304.68 29.4122 304.635 29.6122 304.633 29.8466Z" fill="white"/>
</g>
<g filter="url(#filter3_d_72_7687)">
<g clip-path="url(#clip1_72_7687)">
<rect x="12" y="12" width="22" height="24" rx="4" fill="#181A27"/>
<rect x="12.5" y="12.5" width="21" height="21" rx="3.5" fill="#5B5E6E" stroke="url(#paint0_linear_72_7687)"/>
<g filter="url(#filter4_d_72_7687)">
<path d="M24.3073 18.7273V26H22.7696V20.1868H22.727L21.0615 21.2308V19.8672L22.8619 18.7273H24.3073Z" fill="white"/>
</g>
</g>
</g>
<g opacity="0.5" filter="url(#filter5_i_72_7687)">
<rect x="167" y="12" width="1" height="24" rx="0.5" fill="#292B36" fill-opacity="0.1"/>
</g>
<g opacity="0.5" filter="url(#filter6_i_72_7687)">
<rect x="228" y="12" width="1" height="24" rx="0.5" fill="#292B36" fill-opacity="0.1"/>
</g>
</g>
<defs>
<filter id="filter0_d_72_7687" x="46.3835" y="20.3115" width="108.072" height="11.8477" filterUnits="userSpaceOnUse" color-interpolation-filters="sRGB">
<feFlood flood-opacity="0" result="BackgroundImageFix"/>
<feColorMatrix in="SourceAlpha" type="matrix" values="0 0 0 0 0 0 0 0 0 0 0 0 0 0 0 0 0 0 127 0" result="hardAlpha"/>
<feOffset dy="2"/>
<feComposite in2="hardAlpha" operator="out"/>
<feColorMatrix type="matrix" values="0 0 0 0 0.0941176 0 0 0 0 0.101961 0 0 0 0 0.152941 0 0 0 1 0"/>
<feBlend mode="normal" in2="BackgroundImageFix" result="effect1_dropShadow_72_7687"/>
<feBlend mode="normal" in="SourceGraphic" in2="effect1_dropShadow_72_7687" result="shape"/>
</filter>
<filter id="filter1_d_72_7687" x="179.722" y="20.624" width="36.5801" height="9.47559" filterUnits="userSpaceOnUse" color-interpolation-filters="sRGB">
<feFlood flood-opacity="0" result="BackgroundImageFix"/>
<feColorMatrix in="SourceAlpha" type="matrix" values="0 0 0 0 0 0 0 0 0 0 0 0 0 0 0 0 0 0 127 0" result="hardAlpha"/>
<feOffset dy="2"/>
<feComposite in2="hardAlpha" operator="out"/>
<feColorMatrix type="matrix" values="0 0 0 0 0.0941176 0 0 0 0 0.101961 0 0 0 0 0.152941 0 0 0 1 0"/>
<feBlend mode="normal" in2="BackgroundImageFix" result="effect1_dropShadow_72_7687"/>
<feBlend mode="normal" in="SourceGraphic" in2="effect1_dropShadow_72_7687" result="shape"/>
</filter>
<filter id="filter2_d_72_7687" x="245.853" y="14.3115" width="65.543" height="22.8477" filterUnits="userSpaceOnUse" color-interpolation-filters="sRGB">
<feFlood flood-opacity="0" result="BackgroundImageFix"/>
<feColorMatrix in="SourceAlpha" type="matrix" values="0 0 0 0 0 0 0 0 0 0 0 0 0 0 0 0 0 0 127 0" result="hardAlpha"/>
<feOffset dy="2"/>
<feComposite in2="hardAlpha" operator="out"/>
<feColorMatrix type="matrix" values="0 0 0 0 0.0941176 0 0 0 0 0.101961 0 0 0 0 0.152941 0 0 0 1 0"/>
<feBlend mode="normal" in2="BackgroundImageFix" result="effect1_dropShadow_72_7687"/>
<feBlend mode="normal" in="SourceGraphic" in2="effect1_dropShadow_72_7687" result="shape"/>
</filter>
<filter id="filter3_d_72_7687" x="12" y="12" width="22" height="26" filterUnits="userSpaceOnUse" color-interpolation-filters="sRGB">
<feFlood flood-opacity="0" result="BackgroundImageFix"/>
<feColorMatrix in="SourceAlpha" type="matrix" values="0 0 0 0 0 0 0 0 0 0 0 0 0 0 0 0 0 0 127 0" result="hardAlpha"/>
<feOffset dy="2"/>
<feComposite in2="hardAlpha" operator="out"/>
<feColorMatrix type="matrix" values="0 0 0 0 0 0 0 0 0 0 0 0 0 0 0 0 0 0 0.2 0"/>
<feBlend mode="normal" in2="BackgroundImageFix" result="effect1_dropShadow_72_7687"/>
<feBlend mode="normal" in="SourceGraphic" in2="effect1_dropShadow_72_7687" result="shape"/>
</filter>
<filter id="filter4_d_72_7687" x="21.0615" y="18.7275" width="3.24585" height="9.27246" filterUnits="userSpaceOnUse" color-interpolation-filters="sRGB">
<feFlood flood-opacity="0" result="BackgroundImageFix"/>
<feColorMatrix in="SourceAlpha" type="matrix" values="0 0 0 0 0 0 0 0 0 0 0 0 0 0 0 0 0 0 127 0" result="hardAlpha"/>
<feOffset dy="2"/>
<feComposite in2="hardAlpha" operator="out"/>
<feColorMatrix type="matrix" values="0 0 0 0 0.0941176 0 0 0 0 0.101961 0 0 0 0 0.152941 0 0 0 1 0"/>
<feBlend mode="normal" in2="BackgroundImageFix" result="effect1_dropShadow_72_7687"/>
<feBlend mode="normal" in="SourceGraphic" in2="effect1_dropShadow_72_7687" result="shape"/>
</filter>
<filter id="filter5_i_72_7687" x="167" y="12" width="1" height="28" filterUnits="userSpaceOnUse" color-interpolation-filters="sRGB">
<feFlood flood-opacity="0" result="BackgroundImageFix"/>
<feBlend mode="normal" in="SourceGraphic" in2="BackgroundImageFix" result="shape"/>
<feColorMatrix in="SourceAlpha" type="matrix" values="0 0 0 0 0 0 0 0 0 0 0 0 0 0 0 0 0 0 127 0" result="hardAlpha"/>
<feOffset dy="8"/>
<feGaussianBlur stdDeviation="2"/>
<feComposite in2="hardAlpha" operator="arithmetic" k2="-1" k3="1"/>
<feColorMatrix type="matrix" values="0 0 0 0 0.0941176 0 0 0 0 0.101961 0 0 0 0 0.152941 0 0 0 0.6 0"/>
<feBlend mode="normal" in2="shape" result="effect1_innerShadow_72_7687"/>
</filter>
<filter id="filter6_i_72_7687" x="228" y="12" width="1" height="28" filterUnits="userSpaceOnUse" color-interpolation-filters="sRGB">
<feFlood flood-opacity="0" result="BackgroundImageFix"/>
<feBlend mode="normal" in="SourceGraphic" in2="BackgroundImageFix" result="shape"/>
<feColorMatrix in="SourceAlpha" type="matrix" values="0 0 0 0 0 0 0 0 0 0 0 0 0 0 0 0 0 0 127 0" result="hardAlpha"/>
<feOffset dy="8"/>
<feGaussianBlur stdDeviation="2"/>
<feComposite in2="hardAlpha" operator="arithmetic" k2="-1" k3="1"/>
<feColorMatrix type="matrix" values="0 0 0 0 0.0941176 0 0 0 0 0.101961 0 0 0 0 0.152941 0 0 0 0.6 0"/>
<feBlend mode="normal" in2="shape" result="effect1_innerShadow_72_7687"/>
</filter>
<linearGradient id="paint0_linear_72_7687" x1="23" y1="12" x2="23" y2="34" gradientUnits="userSpaceOnUse">
<stop stop-color="white" stop-opacity="0"/>
<stop offset="1" stop-color="white" stop-opacity="0.2"/>
</linearGradient>
<clipPath id="clip0_72_7687">
<rect width="336" height="56" rx="8" fill="white"/>
</clipPath>
<clipPath id="clip1_72_7687">
<rect x="12" y="12" width="22" height="24" rx="4" fill="white"/>
</clipPath>
</defs>
</svg>
