<svg width="82" height="86" viewBox="0 0 82 86" fill="none" xmlns="http://www.w3.org/2000/svg">
<g clip-path="url(#clip0_68_2710)">
<rect width="86" height="86" fill="#292E42"/>
<rect x="80" width="2" height="86" fill="#181A27"/>
<rect width="2" height="86" fill="#181A27"/>
<rect x="2" width="78" height="4" fill="#474C5D"/>
<path d="M21.0863 73V62.8182H24.9045C25.6867 62.8182 26.3429 62.964 26.8732 63.2557C27.4068 63.5473 27.8095 63.9484 28.0813 64.4588C28.3564 64.9659 28.494 65.5426 28.494 66.1889C28.494 66.8419 28.3564 67.4219 28.0813 67.929C27.8062 68.4361 27.4002 68.8355 26.8633 69.1271C26.3263 69.4155 25.6651 69.5597 24.8796 69.5597H22.3491V68.0433H24.631C25.0884 68.0433 25.4629 67.9638 25.7546 67.8047C26.0463 67.6456 26.2617 67.4268 26.4009 67.1484C26.5434 66.87 26.6147 66.5502 26.6147 66.1889C26.6147 65.8277 26.5434 65.5095 26.4009 65.2344C26.2617 64.9593 26.0446 64.7455 25.7496 64.593C25.458 64.4373 25.0818 64.3594 24.6211 64.3594H22.9308V73H21.0863ZM30.0165 73V65.3636H31.7615V66.6364H31.8411C31.9803 66.1955 32.2189 65.8558 32.557 65.6172C32.8984 65.3752 33.2878 65.2543 33.7253 65.2543C33.8248 65.2543 33.9358 65.2592 34.0584 65.2692C34.1844 65.2758 34.2888 65.2874 34.3716 65.304V66.9595C34.2954 66.933 34.1744 66.9098 34.0087 66.8899C33.8463 66.8667 33.6889 66.8551 33.5364 66.8551C33.2083 66.8551 32.9133 66.9264 32.6515 67.0689C32.3929 67.2081 32.1891 67.402 32.04 67.6506C31.8908 67.8991 31.8162 68.1858 31.8162 68.5107V73H30.0165ZM35.5673 73V65.3636H37.367V73H35.5673ZM36.4721 64.2798C36.1871 64.2798 35.9418 64.1854 35.7363 63.9964C35.5308 63.8042 35.4281 63.5739 35.4281 63.3054C35.4281 63.0336 35.5308 62.8033 35.7363 62.6143C35.9418 62.4221 36.1871 62.326 36.4721 62.326C36.7605 62.326 37.0057 62.4221 37.2079 62.6143C37.4134 62.8033 37.5162 63.0336 37.5162 63.3054C37.5162 63.5739 37.4134 63.8042 37.2079 63.9964C37.0057 64.1854 36.7605 64.2798 36.4721 64.2798ZM39.1183 73V71.8565L43.0558 66.9197V66.8551H39.2475V65.3636H45.2582V66.5916L41.5096 71.4439V71.5085H45.3874V73H39.1183ZM50.2409 73.1491C49.4753 73.1491 48.8141 72.9901 48.2573 72.6719C47.7038 72.3504 47.2779 71.8963 46.9796 71.3097C46.6813 70.7197 46.5321 70.0253 46.5321 69.2266C46.5321 68.4411 46.6813 67.7517 46.9796 67.1584C47.2812 66.5618 47.7021 66.0978 48.2424 65.7663C48.7826 65.4316 49.4173 65.2642 50.1465 65.2642C50.6171 65.2642 51.0613 65.3404 51.4789 65.4929C51.8998 65.642 52.271 65.8741 52.5925 66.1889C52.9173 66.5038 53.1725 66.9048 53.3581 67.392C53.5437 67.8759 53.6365 68.4527 53.6365 69.1222V69.674H47.3773V68.4609H51.9114C51.9081 68.1162 51.8335 67.8097 51.6877 67.5412C51.5418 67.2694 51.338 67.0556 51.0762 66.8999C50.8176 66.7441 50.516 66.6662 50.1713 66.6662C49.8034 66.6662 49.4803 66.7557 49.2019 66.9347C48.9235 67.1103 48.7064 67.3423 48.5506 67.6307C48.3981 67.9157 48.3203 68.2289 48.3169 68.5703V69.6293C48.3169 70.0734 48.3981 70.4545 48.5605 70.7727C48.723 71.0876 48.95 71.3295 49.2417 71.4986C49.5333 71.6643 49.8747 71.7472 50.2658 71.7472C50.5276 71.7472 50.7646 71.7107 50.9767 71.6378C51.1889 71.5616 51.3728 71.4505 51.5286 71.3047C51.6844 71.1589 51.802 70.9782 51.8816 70.7628L53.562 70.9517C53.4559 71.3958 53.2537 71.7836 52.9554 72.1151C52.6605 72.4432 52.2826 72.6984 51.8219 72.8807C51.3612 73.0597 50.8342 73.1491 50.2409 73.1491ZM61.1946 67.3821L59.554 67.5611C59.5076 67.3954 59.4264 67.2396 59.3104 67.0938C59.1977 66.9479 59.0452 66.8303 58.853 66.7408C58.6607 66.6513 58.4254 66.6065 58.147 66.6065C57.7725 66.6065 57.4576 66.6877 57.2024 66.8501C56.9505 67.0125 56.8262 67.223 56.8295 67.4815C56.8262 67.7036 56.9074 67.8842 57.0732 68.0234C57.2422 68.1626 57.5206 68.277 57.9084 68.3665L59.2109 68.6449C59.9335 68.8007 60.4704 69.0476 60.8217 69.3857C61.1764 69.7237 61.3554 70.1662 61.3587 70.7131C61.3554 71.1937 61.2145 71.6179 60.9361 71.9858C60.661 72.3504 60.2782 72.6354 59.7876 72.8409C59.2971 73.0464 58.7337 73.1491 58.0973 73.1491C57.1626 73.1491 56.4103 72.9536 55.8402 72.5625C55.2701 72.1681 54.9304 71.6196 54.821 70.9169L56.576 70.7479C56.6555 71.0926 56.8246 71.3527 57.0831 71.5284C57.3416 71.7041 57.678 71.7919 58.0923 71.7919C58.5199 71.7919 58.8629 71.7041 59.1214 71.5284C59.3833 71.3527 59.5142 71.1357 59.5142 70.8771C59.5142 70.6584 59.4297 70.4777 59.2607 70.3352C59.0949 70.1927 58.8364 70.0833 58.4851 70.0071L57.1825 69.7337C56.45 69.5812 55.9081 69.3243 55.5568 68.9631C55.2055 68.5985 55.0315 68.1378 55.0348 67.581C55.0315 67.1103 55.1591 66.7027 55.4176 66.358C55.6795 66.0099 56.0424 65.7415 56.5064 65.5526C56.9737 65.3603 57.5123 65.2642 58.1222 65.2642C59.017 65.2642 59.7214 65.4548 60.2351 65.8359C60.7521 66.2171 61.072 66.7325 61.1946 67.3821Z" fill="#474C5D"/>
<g filter="url(#filter0_d_68_2710)">
<path d="M52.3399 34.4193V44.3359C52.3399 45.1183 51.7056 45.7526 50.9232 45.7526H31.0898C30.3074 45.7526 29.6732 45.1183 29.6732 44.3359V34.4193H52.3399ZM44.5482 18.8359C47.2866 18.8359 49.5065 21.0559 49.5065 23.7943C49.5065 24.5553 49.3351 25.2763 49.0287 25.9207L53.7565 25.9193C54.539 25.9193 55.1732 26.5535 55.1732 27.3359V31.5859C55.1732 32.3683 54.539 33.0026 53.7565 33.0026H28.2565C27.4741 33.0026 26.8398 32.3683 26.8398 31.5859V27.3359C26.8398 26.5535 27.4741 25.9193 28.2565 25.9193L32.9844 25.9207C32.678 25.2763 32.5065 24.5553 32.5065 23.7943C32.5065 21.0559 34.7264 18.8359 37.4648 18.8359C38.8532 18.8359 40.1082 19.4065 41.0082 20.326C41.9048 19.4065 43.1599 18.8359 44.5482 18.8359ZM37.4648 21.6693C36.2912 21.6693 35.3398 22.6207 35.3398 23.7943C35.3398 24.8988 36.1826 25.8066 37.2602 25.9095L37.4648 25.9193H39.5899V23.7943C39.5899 22.6897 38.7471 21.782 37.6695 21.679L37.4648 21.6693ZM44.5482 21.6693L44.3435 21.679C43.3333 21.7755 42.5295 22.5794 42.4328 23.5896L42.4232 23.7943V25.9193H44.5482L44.7528 25.9095C45.8304 25.8066 46.6732 24.8988 46.6732 23.7943C46.6732 22.6897 45.8304 21.782 44.7528 21.679L44.5482 21.6693Z" fill="#474C5D"/>
</g>
</g>
<defs>
<filter id="filter0_d_68_2710" x="26.8398" y="18.8359" width="28.3333" height="30.9165" filterUnits="userSpaceOnUse" color-interpolation-filters="sRGB">
<feFlood flood-opacity="0" result="BackgroundImageFix"/>
<feColorMatrix in="SourceAlpha" type="matrix" values="0 0 0 0 0 0 0 0 0 0 0 0 0 0 0 0 0 0 127 0" result="hardAlpha"/>
<feOffset dy="4"/>
<feComposite in2="hardAlpha" operator="out"/>
<feColorMatrix type="matrix" values="0 0 0 0 0.0941176 0 0 0 0 0.101961 0 0 0 0 0.152941 0 0 0 0.4 0"/>
<feBlend mode="normal" in2="BackgroundImageFix" result="effect1_dropShadow_68_2710"/>
<feBlend mode="normal" in="SourceGraphic" in2="effect1_dropShadow_68_2710" result="shape"/>
</filter>
<clipPath id="clip0_68_2710">
<rect width="82" height="86" fill="white"/>
</clipPath>
</defs>
</svg>
