<svg width="82" height="86" viewBox="0 0 82 86" fill="none" xmlns="http://www.w3.org/2000/svg">
<g clip-path="url(#clip0_68_2718)">
<rect x="-2" width="86" height="86" fill="#292E42"/>
<rect x="80" width="2" height="86" fill="#181A27"/>
<rect width="2" height="86" fill="#181A27"/>
<rect x="2" width="78" height="4" fill="#474C5D"/>
<path d="M23.3763 73V62.8182H27.1945C27.9767 62.8182 28.633 62.9541 29.1633 63.2259C29.6969 63.4976 30.0996 63.8788 30.3714 64.3693C30.6465 64.8565 30.784 65.425 30.784 66.0746C30.784 66.7275 30.6448 67.2943 30.3664 67.7749C30.0913 68.2521 29.6853 68.6217 29.1483 68.8835C28.6114 69.142 27.9519 69.2713 27.1697 69.2713H24.4502V67.7401H26.9211C27.3785 67.7401 27.753 67.6771 28.0447 67.5511C28.3363 67.4219 28.5518 67.2346 28.691 66.9893C28.8335 66.7408 28.9047 66.4358 28.9047 66.0746C28.9047 65.7133 28.8335 65.4051 28.691 65.1499C28.5484 64.8913 28.3314 64.6958 28.0397 64.5632C27.748 64.4273 27.3718 64.3594 26.9111 64.3594H25.2208V73H23.3763ZM28.6363 68.3864L31.1569 73H29.0986L26.6228 68.3864H28.6363ZM37.2694 69.7884V65.3636H39.0692V73H37.3241V71.6428H37.2446C37.0722 72.0703 36.7889 72.42 36.3944 72.6918C36.0033 72.9635 35.5211 73.0994 34.9477 73.0994C34.4472 73.0994 34.0048 72.9884 33.6203 72.7663C33.2391 72.541 32.9408 72.2145 32.7254 71.7869C32.51 71.3561 32.4023 70.8357 32.4023 70.2259V65.3636H34.202V69.9474C34.202 70.4313 34.3345 70.8158 34.5997 71.1009C34.8648 71.3859 35.2129 71.5284 35.6437 71.5284C35.9089 71.5284 36.1657 71.4638 36.4143 71.3345C36.6629 71.2053 36.8667 71.013 37.0258 70.7578C37.1882 70.4993 37.2694 70.1761 37.2694 69.7884ZM42.7195 62.8182V73H40.9198V62.8182H42.7195ZM47.9509 73.1491C47.1853 73.1491 46.5241 72.9901 45.9672 72.6719C45.4137 72.3504 44.9878 71.8963 44.6895 71.3097C44.3912 70.7197 44.2421 70.0253 44.2421 69.2266C44.2421 68.4411 44.3912 67.7517 44.6895 67.1584C44.9912 66.5618 45.4121 66.0978 45.9523 65.7663C46.4926 65.4316 47.1273 65.2642 47.8564 65.2642C48.3271 65.2642 48.7712 65.3404 49.1888 65.4929C49.6098 65.642 49.981 65.8741 50.3025 66.1889C50.6273 66.5038 50.8825 66.9048 51.0681 67.392C51.2537 67.8759 51.3465 68.4527 51.3465 69.1222V69.674H45.0873V68.4609H49.6214C49.618 68.1162 49.5435 67.8097 49.3976 67.5412C49.2518 67.2694 49.048 67.0556 48.7861 66.8999C48.5276 66.7441 48.226 66.6662 47.8813 66.6662C47.5134 66.6662 47.1903 66.7557 46.9118 66.9347C46.6334 67.1103 46.4163 67.3423 46.2606 67.6307C46.1081 67.9157 46.0302 68.2289 46.0269 68.5703V69.6293C46.0269 70.0734 46.1081 70.4545 46.2705 70.7727C46.4329 71.0876 46.6599 71.3295 46.9516 71.4986C47.2433 71.6643 47.5847 71.7472 47.9758 71.7472C48.2376 71.7472 48.4746 71.7107 48.6867 71.6378C48.8988 71.5616 49.0828 71.4505 49.2385 71.3047C49.3943 71.1589 49.512 70.9782 49.5915 70.7628L51.2719 70.9517C51.1659 71.3958 50.9637 71.7836 50.6654 72.1151C50.3704 72.4432 49.9926 72.6984 49.5319 72.8807C49.0712 73.0597 48.5442 73.1491 47.9509 73.1491ZM58.9046 67.3821L57.2639 67.5611C57.2175 67.3954 57.1363 67.2396 57.0203 67.0938C56.9076 66.9479 56.7552 66.8303 56.5629 66.7408C56.3707 66.6513 56.1354 66.6065 55.857 66.6065C55.4825 66.6065 55.1676 66.6877 54.9124 66.8501C54.6605 67.0125 54.5362 67.223 54.5395 67.4815C54.5362 67.7036 54.6174 67.8842 54.7831 68.0234C54.9521 68.1626 55.2306 68.277 55.6183 68.3665L56.9209 68.6449C57.6434 68.8007 58.1804 69.0476 58.5317 69.3857C58.8863 69.7237 59.0653 70.1662 59.0686 70.7131C59.0653 71.1937 58.9244 71.6179 58.646 71.9858C58.3709 72.3504 57.9881 72.6354 57.4976 72.8409C57.0071 73.0464 56.4436 73.1491 55.8073 73.1491C54.8726 73.1491 54.1202 72.9536 53.5502 72.5625C52.9801 72.1681 52.6404 71.6196 52.531 70.9169L54.286 70.7479C54.3655 71.0926 54.5345 71.3527 54.7931 71.5284C55.0516 71.7041 55.388 71.7919 55.8023 71.7919C56.2298 71.7919 56.5729 71.7041 56.8314 71.5284C57.0932 71.3527 57.2242 71.1357 57.2242 70.8771C57.2242 70.6584 57.1396 70.4777 56.9706 70.3352C56.8049 70.1927 56.5464 70.0833 56.195 70.0071L54.8925 69.7337C54.16 69.5812 53.6181 69.3243 53.2668 68.9631C52.9155 68.5985 52.7414 68.1378 52.7448 67.581C52.7414 67.1103 52.8691 66.7027 53.1276 66.358C53.3894 66.0099 53.7523 65.7415 54.2164 65.5526C54.6837 65.3603 55.2223 65.2642 55.8321 65.2642C56.727 65.2642 57.4313 65.4548 57.945 65.8359C58.4621 66.2171 58.7819 66.7325 58.9046 67.3821Z" fill="#474C5D"/>
<g filter="url(#filter0_d_68_2718)">
<path d="M26.833 21.6573C26.833 20.8801 27.478 20.25 28.2381 20.25H53.7613C54.5373 20.25 55.1663 20.8803 55.1663 21.6573V44.3427C55.1663 45.1199 54.5213 45.75 53.7613 45.75H28.2381C27.4621 45.75 26.833 45.1197 26.833 44.3427V21.6573ZM40.9997 23.0833V42.9167H52.333V23.0833H40.9997ZM42.4163 25.9167H50.9163V28.75H42.4163V25.9167ZM42.4163 30.1667H50.9163V33H42.4163V30.1667Z" fill="#474C5D"/>
</g>
</g>
<defs>
<filter id="filter0_d_68_2718" x="26.833" y="20.25" width="28.3333" height="28.9" filterUnits="userSpaceOnUse" color-interpolation-filters="sRGB">
<feFlood flood-opacity="0" result="BackgroundImageFix"/>
<feColorMatrix in="SourceAlpha" type="matrix" values="0 0 0 0 0 0 0 0 0 0 0 0 0 0 0 0 0 0 127 0" result="hardAlpha"/>
<feOffset dy="3.4"/>
<feComposite in2="hardAlpha" operator="out"/>
<feColorMatrix type="matrix" values="0 0 0 0 0.0941176 0 0 0 0 0.101961 0 0 0 0 0.152941 0 0 0 0.4 0"/>
<feBlend mode="normal" in2="BackgroundImageFix" result="effect1_dropShadow_68_2718"/>
<feBlend mode="normal" in="SourceGraphic" in2="effect1_dropShadow_68_2718" result="shape"/>
</filter>
<clipPath id="clip0_68_2718">
<rect width="82" height="86" fill="white"/>
</clipPath>
</defs>
</svg>
