<svg width="82" height="86" viewBox="0 0 82 86" fill="none" xmlns="http://www.w3.org/2000/svg">
<g clip-path="url(#clip0_68_2726)">
<rect x="-2" width="86" height="86" fill="#292E42"/>
<rect x="80" width="2" height="86" fill="#181A27"/>
<rect width="2" height="86" fill="#181A27"/>
<rect x="2" width="78" height="4" fill="#474C5D"/>
<path d="M30.065 65.6172C30.0186 65.183 29.823 64.8449 29.4783 64.603C29.137 64.361 28.6928 64.2401 28.146 64.2401C27.7615 64.2401 27.4317 64.2981 27.1566 64.4141C26.8815 64.5301 26.671 64.6875 26.5252 64.8864C26.3794 65.0852 26.3048 65.3123 26.3015 65.5675C26.3015 65.7796 26.3496 65.9635 26.4457 66.1193C26.5451 66.2751 26.6793 66.4077 26.8484 66.517C27.0174 66.6231 27.2047 66.7126 27.4102 66.7855C27.6156 66.8584 27.8228 66.9197 28.0316 66.9695L28.9862 67.2081C29.3706 67.2976 29.7402 67.4186 30.0948 67.571C30.4528 67.7235 30.7726 67.9157 31.0543 68.1477C31.3394 68.3797 31.5647 68.6598 31.7305 68.9879C31.8962 69.3161 31.979 69.7005 31.979 70.1413C31.979 70.7379 31.8266 71.2633 31.5217 71.7173C31.2167 72.1681 30.7759 72.5211 30.1992 72.7763C29.6258 73.0282 28.9315 73.1541 28.1161 73.1541C27.324 73.1541 26.6362 73.0315 26.0529 72.7862C25.4729 72.541 25.0188 72.183 24.6907 71.7124C24.3659 71.2417 24.1902 70.6683 24.1637 69.9922H25.9783C26.0049 70.3468 26.1142 70.6418 26.3065 70.8771C26.4987 71.1125 26.7489 71.2881 27.0572 71.4041C27.3687 71.5201 27.7167 71.5781 28.1012 71.5781C28.5022 71.5781 28.8536 71.5185 29.1552 71.3991C29.4601 71.2765 29.6987 71.1075 29.8711 70.892C30.0434 70.6733 30.1313 70.4181 30.1346 70.1264C30.1313 69.8613 30.0534 69.6425 29.9009 69.4702C29.7485 69.2945 29.5347 69.1487 29.2596 69.0327C28.9878 68.9134 28.6696 68.8073 28.305 68.7145L27.1467 68.4162C26.3081 68.2008 25.6452 67.8743 25.158 67.4368C24.6741 66.996 24.4322 66.411 24.4322 65.6818C24.4322 65.0819 24.5946 64.5566 24.9194 64.1058C25.2475 63.6551 25.6933 63.3054 26.2567 63.0568C26.8202 62.8049 27.4582 62.679 28.1708 62.679C28.8933 62.679 29.5264 62.8049 30.07 63.0568C30.6168 63.3054 31.046 63.6518 31.3576 64.0959C31.6692 64.5367 31.8299 65.0438 31.8398 65.6172H30.065ZM35.3436 68.5256V73H33.5439V62.8182H35.3038V66.6612H35.3933C35.5723 66.2304 35.849 65.8906 36.2235 65.642C36.6014 65.3902 37.082 65.2642 37.6653 65.2642C38.1956 65.2642 38.658 65.3752 39.0524 65.5973C39.4468 65.8194 39.7517 66.1442 39.9672 66.5717C40.1859 66.9993 40.2953 67.5213 40.2953 68.1378V73H38.4956V68.4162C38.4956 67.9025 38.363 67.5031 38.0978 67.218C37.836 66.9297 37.4681 66.7855 36.9941 66.7855C36.676 66.7855 36.3909 66.8551 36.139 66.9943C35.8904 67.1302 35.6949 67.3274 35.5524 67.5859C35.4132 67.8445 35.3436 68.1577 35.3436 68.5256ZM45.4608 73.1491C44.715 73.1491 44.0687 72.9851 43.5218 72.657C42.975 72.3288 42.5507 71.8698 42.2491 71.2798C41.9508 70.6899 41.8017 70.0005 41.8017 69.2116C41.8017 68.4228 41.9508 67.7318 42.2491 67.1385C42.5507 66.5452 42.975 66.0845 43.5218 65.7564C44.0687 65.4283 44.715 65.2642 45.4608 65.2642C46.2065 65.2642 46.8528 65.4283 47.3997 65.7564C47.9466 66.0845 48.3691 66.5452 48.6674 67.1385C48.969 67.7318 49.1199 68.4228 49.1199 69.2116C49.1199 70.0005 48.969 70.6899 48.6674 71.2798C48.3691 71.8698 47.9466 72.3288 47.3997 72.657C46.8528 72.9851 46.2065 73.1491 45.4608 73.1491ZM45.4707 71.7074C45.8751 71.7074 46.2131 71.5964 46.4849 71.3743C46.7567 71.1489 46.9589 70.8473 47.0914 70.4695C47.2273 70.0916 47.2953 69.6707 47.2953 69.2067C47.2953 68.7393 47.2273 68.3168 47.0914 67.9389C46.9589 67.5578 46.7567 67.2545 46.4849 67.0291C46.2131 66.8037 45.8751 66.6911 45.4707 66.6911C45.0564 66.6911 44.7117 66.8037 44.4366 67.0291C44.1648 67.2545 43.961 67.5578 43.8251 67.9389C43.6925 68.3168 43.6262 68.7393 43.6262 69.2067C43.6262 69.6707 43.6925 70.0916 43.8251 70.4695C43.961 70.8473 44.1648 71.1489 44.4366 71.3743C44.7117 71.5964 45.0564 71.7074 45.4707 71.7074ZM50.6474 75.8636V65.3636H52.4173V66.6264H52.5217C52.6145 66.4408 52.7454 66.2436 52.9144 66.0348C53.0835 65.8227 53.3121 65.642 53.6005 65.4929C53.8888 65.3404 54.2567 65.2642 54.7042 65.2642C55.2942 65.2642 55.8261 65.415 56.3001 65.7166C56.7773 66.0149 57.1552 66.4574 57.4336 67.044C57.7153 67.6274 57.8562 68.3433 57.8562 69.1918C57.8562 70.0303 57.7186 70.7429 57.4435 71.3295C57.1684 71.9162 56.7939 72.3636 56.32 72.6719C55.846 72.9801 55.3091 73.1342 54.7092 73.1342C54.2717 73.1342 53.9087 73.0613 53.6204 72.9155C53.332 72.7696 53.1 72.594 52.9244 72.3885C52.752 72.1797 52.6178 71.9825 52.5217 71.7969H52.4471V75.8636H50.6474ZM52.4123 69.1818C52.4123 69.6757 52.4819 70.1082 52.6211 70.4794C52.7636 70.8506 52.9674 71.1406 53.2326 71.3494C53.5011 71.5549 53.8259 71.6577 54.207 71.6577C54.6048 71.6577 54.9379 71.5516 55.2063 71.3395C55.4748 71.1241 55.677 70.8307 55.8129 70.4595C55.9521 70.085 56.0217 69.6591 56.0217 69.1818C56.0217 68.7079 55.9537 68.2869 55.8178 67.919C55.6819 67.5511 55.4798 67.2628 55.2113 67.054C54.9428 66.8452 54.6081 66.7408 54.207 66.7408C53.8226 66.7408 53.4961 66.8419 53.2276 67.044C52.9592 67.2462 52.7553 67.5296 52.6161 67.8942C52.4802 68.2588 52.4123 68.688 52.4123 69.1818Z" fill="#474C5D"/>
<g filter="url(#filter0_d_68_2726)">
<path d="M29.6728 25.0913L25.0791 20.4976L27.0826 18.4941L31.6763 23.0879H53.2688C54.0512 23.0879 54.6854 23.7222 54.6854 24.5045C54.6854 24.6424 54.6653 24.7796 54.6258 24.9116L51.2258 36.245C51.046 36.8442 50.4944 37.2546 49.8688 37.2546H32.5062V40.088H48.0896V42.9213H31.0895C30.3071 42.9213 29.6728 42.2869 29.6728 41.5046V25.0913ZM31.7978 48.588C30.6242 48.588 29.6728 47.6365 29.6728 46.463C29.6728 45.2892 30.6242 44.338 31.7978 44.338C32.9715 44.338 33.9228 45.2892 33.9228 46.463C33.9228 47.6365 32.9715 48.588 31.7978 48.588ZM48.7979 48.588C47.6242 48.588 46.6729 47.6365 46.6729 46.463C46.6729 45.2892 47.6242 44.338 48.7979 44.338C49.9715 44.338 50.9229 45.2892 50.9229 46.463C50.9229 47.6365 49.9715 48.588 48.7979 48.588Z" fill="#474C5D"/>
</g>
</g>
<defs>
<filter id="filter0_d_68_2726" x="25.0791" y="18.4941" width="29.6064" height="34.0938" filterUnits="userSpaceOnUse" color-interpolation-filters="sRGB">
<feFlood flood-opacity="0" result="BackgroundImageFix"/>
<feColorMatrix in="SourceAlpha" type="matrix" values="0 0 0 0 0 0 0 0 0 0 0 0 0 0 0 0 0 0 127 0" result="hardAlpha"/>
<feOffset dy="4"/>
<feComposite in2="hardAlpha" operator="out"/>
<feColorMatrix type="matrix" values="0 0 0 0 0.0941176 0 0 0 0 0.101961 0 0 0 0 0.152941 0 0 0 0.4 0"/>
<feBlend mode="normal" in2="BackgroundImageFix" result="effect1_dropShadow_68_2726"/>
<feBlend mode="normal" in="SourceGraphic" in2="effect1_dropShadow_68_2726" result="shape"/>
</filter>
<clipPath id="clip0_68_2726">
<rect width="82" height="86" fill="white"/>
</clipPath>
</defs>
</svg>
